<svg width="189" height="156" viewBox="0 0 189 156" fill="none" xmlns="http://www.w3.org/2000/svg">
<path d="M31.5491 14.5826L9.3999 17.5996L11.3152 31.6313L33.4644 28.6144L31.5491 14.5826Z" fill="#D3E7EE"/>
<path d="M31.5526 14.5835C30.7744 15.56 29.9748 16.5027 29.1883 17.4665C28.3926 18.4132 27.5933 19.3605 26.7897 20.2988C25.9511 21.279 25.1078 22.2505 24.2642 23.2177C24.238 23.2489 24.2152 23.2797 24.189 23.3109C23.4414 24.1637 22.6905 25.0168 21.9395 25.8696L21.8274 25.9906L21.6901 25.9035C20.738 25.2824 19.789 24.6607 18.8397 24.0349C18.8068 24.0165 18.7729 23.9933 18.7393 23.9702C17.6637 23.2646 16.5908 22.554 15.5196 21.8293C14.4977 21.1442 13.4739 20.4454 12.4537 19.7458C11.4375 19.0275 10.4143 18.3333 9.40283 17.6003C10.4542 18.2032 11.4939 18.8447 12.5376 19.4672C13.5799 20.1036 14.6223 20.7401 15.6599 21.391C16.8151 22.109 17.9719 22.8401 19.1267 23.5812C19.13 23.5808 19.13 23.5808 19.1341 23.5849C19.9985 24.1348 20.8636 24.6895 21.729 25.2442C22.4105 24.4789 23.095 23.7086 23.7812 22.9517C23.7832 22.9423 23.7832 22.9423 23.7865 22.9417C24.7013 21.9236 25.6164 20.9098 26.5399 19.9041C27.3657 19.004 28.1956 18.108 29.0298 17.2203C29.8714 16.3417 30.7013 15.4457 31.5526 14.5835Z" fill="white"/>
<path d="M19.2025 23.8965C19.1935 23.9045 19.1881 23.9153 19.179 23.9233C19.0763 24.039 18.9732 24.1544 18.8702 24.2667C18.3787 24.811 17.871 25.3369 17.3517 25.8514C16.7198 26.4859 16.0682 27.0993 15.4132 27.7097C14.7532 28.3107 14.0894 28.909 13.4062 29.4895C12.723 30.0701 12.0317 30.6415 11.3086 31.1765C11.9001 30.4967 12.5239 29.8534 13.1561 29.2222C13.7913 28.5874 14.4426 27.974 15.0949 27.3639C15.7576 26.7592 16.4217 26.1609 17.1046 25.5804C17.6478 25.1172 18.2021 24.6591 18.7728 24.2225C18.9044 24.1198 19.0367 24.0206 19.172 23.921C19.1811 23.9129 19.1935 23.9045 19.2025 23.8965Z" fill="white"/>
<path d="M33.3526 28.1729C32.5123 27.8507 31.6902 27.4855 30.8795 27.1085C30.0657 26.732 29.2658 26.3332 28.4655 25.9312C27.6705 25.5183 26.8783 25.1015 26.0998 24.6592C25.465 24.3024 24.8352 23.9345 24.2192 23.5411C24.0859 23.4576 23.9557 23.3738 23.8258 23.29C23.815 23.2846 23.807 23.2755 23.7959 23.2705C23.807 23.2759 23.8211 23.2806 23.8315 23.2826C23.9893 23.3456 24.143 23.406 24.2974 23.4697C24.9641 23.7376 25.6174 24.0311 26.2683 24.3315C27.0821 24.7081 27.882 25.1069 28.6793 25.5126C29.4742 25.9254 30.2665 26.3423 31.045 26.7846C31.8268 27.2232 32.6003 27.6766 33.3526 28.1729Z" fill="white"/>
<path d="M66.2688 6.19858L61.0967 28.0298L95.5576 36.177L100.73 14.3458L66.2688 6.19858Z" fill="#D3E7EE"/>
<path d="M100.741 14.348C99.0334 15.3486 97.3139 16.2866 95.6012 17.2635C93.8848 18.2098 92.1636 19.1552 90.4401 20.0847C88.6415 21.0562 86.8411 22.0123 85.0421 22.9617C84.9857 22.9929 84.9343 23.0254 84.8776 23.0566C83.2861 23.8913 81.6898 24.7249 80.0932 25.5583L79.8582 25.6736L79.7052 25.4667C78.6521 24.0066 77.604 22.5479 76.558 21.0821C76.5197 21.0358 76.4831 20.9825 76.4465 20.9295C75.2595 19.2742 74.0788 17.6132 72.9086 15.9325C71.789 14.3379 70.6745 12.7222 69.565 11.1075C68.4727 9.46733 67.3565 7.85867 66.2795 6.19971C67.4894 7.68932 68.6603 9.22923 69.848 10.7433C71.0257 12.2775 72.2033 13.8114 73.3658 15.3641C74.6636 17.0827 75.9568 18.8222 77.2408 20.5747C77.2458 20.576 77.2458 20.576 77.2495 20.5844C78.2137 21.8896 79.1761 23.2021 80.1385 24.5143C81.5824 23.7712 83.0333 23.022 84.4791 22.294C84.4875 22.2813 84.4875 22.2813 84.4929 22.2823C86.4259 21.298 88.3568 20.3208 90.2951 19.3597C92.0293 18.4992 93.7669 17.6471 95.5062 16.8104C97.2528 15.9898 98.9904 15.1377 100.741 14.348Z" fill="white"/>
<path d="M77.1745 21.084C77.1563 21.0907 77.1426 21.1038 77.1245 21.1105C76.9066 21.2228 76.6887 21.3348 76.4722 21.4421C75.4352 21.9666 74.3848 22.4556 73.324 22.9197C72.0285 23.4978 70.7156 24.0334 69.3987 24.5629C68.0804 25.0756 66.7581 25.5817 65.4173 26.0508C64.0765 26.52 62.729 26.971 61.355 27.3503C62.6172 26.6823 63.906 26.0863 65.2004 25.5136C66.5013 24.9368 67.8142 24.4009 69.1257 23.8704C70.4504 23.3539 71.7727 22.8476 73.1135 22.3784C74.1807 22.0028 75.261 21.6417 76.3537 21.3211C76.6068 21.2443 76.8586 21.1729 77.1157 21.1028C77.1335 21.0961 77.1567 21.0907 77.1745 21.084Z" fill="white"/>
<path d="M95.6505 35.4598C94.5923 34.5054 93.5852 33.4973 92.6023 32.4789C91.6144 31.4591 90.6596 30.4145 89.7059 29.3645C88.7663 28.3014 87.8334 27.2347 86.9347 26.1378C86.1999 25.2488 85.4791 24.3467 84.7926 23.4148C84.6432 23.2156 84.4985 23.0177 84.3542 22.8199C84.3411 22.8058 84.3344 22.788 84.3213 22.7739C84.3344 22.788 84.3525 22.8031 84.3669 22.8121C84.564 22.9952 84.757 23.172 84.949 23.3537C85.7819 24.1294 86.5802 24.9349 87.3708 25.7498C88.3587 26.7696 89.3135 27.8142 90.2608 28.8682C91.2004 29.9309 92.1333 30.998 93.032 32.0949C93.9374 33.1878 94.8219 34.2978 95.6505 35.4598Z" fill="white"/>
<path d="M167.494 42.752H19.3013V141.778H167.494V42.752Z" fill="#DBDBDB"/>
<path d="M166.417 43.96H20.3779V140.57H166.417V43.96Z" fill="#263238"/>
<path d="M186.796 149.204H0V156.001H186.796V149.204Z" fill="#C7C7C7"/>
<path d="M0 149.204L19.301 141.778H167.494L186.795 149.204H0Z" fill="#D3E7EE"/>
<path d="M21.0249 146.57L33.4803 141.778H153.315L165.771 146.57H21.0249Z" fill="#263238"/>
<path d="M158.164 51.2998H28.6313V133.23H158.164V51.2998Z" fill="white"/>
<path d="M158.164 51.2998H28.5222V54.4524H158.164V51.2998Z" fill="#455A64"/>
<path d="M31.0311 52.8765C31.0311 53.3084 30.6806 53.6586 30.2485 53.6586C29.8161 53.6586 29.4656 53.3084 29.4656 52.8765C29.4656 52.4445 29.8161 52.0947 30.2485 52.0947C30.6809 52.0944 31.0311 52.4445 31.0311 52.8765Z" fill="#C7C7C7"/>
<path d="M34.2264 52.8765C34.2264 53.3084 33.8759 53.6586 33.4435 53.6586C33.011 53.6586 32.6609 53.3084 32.6609 52.8765C32.6609 52.4445 33.0114 52.0947 33.4435 52.0947C33.8759 52.0944 34.2264 52.4445 34.2264 52.8765Z" fill="white"/>
<path d="M37.4227 52.8765C37.4227 53.3084 37.0722 53.6586 36.6398 53.6586C36.2073 53.6586 35.8572 53.3084 35.8572 52.8765C35.8572 52.4445 36.2077 52.0947 36.6398 52.0947C37.0722 52.0944 37.4227 52.4445 37.4227 52.8765Z" fill="#F79725"/>
<path d="M158.164 54.4521H155.865V133.23H158.164V54.4521Z" fill="#DBDBDB"/>
<path d="M157.014 81.7634C156.686 81.7634 156.42 81.4978 156.42 81.1702V55.5068C156.42 55.1792 156.686 54.9136 157.014 54.9136C157.342 54.9136 157.608 55.1792 157.608 55.5068V81.1702C157.608 81.4978 157.342 81.7634 157.014 81.7634Z" fill="#A6A6A6"/>
<path d="M135.783 59.4087H65.9617V62.062H135.783V59.4087Z" fill="white"/>
<path d="M135.809 62.0896H65.9341V59.3823H135.809V62.0896Z" fill="#EBEBEB"/>
<path d="M135.811 59.3809H133.099V62.0897H135.811V59.3809Z" fill="#F79725"/>
<path d="M135.296 61.4795L135.051 61.6653L134.596 61.0658L134.43 60.8464C134.463 60.8337 134.495 60.8156 134.525 60.7924C134.583 60.7485 134.625 60.6918 134.651 60.6294L134.828 60.8619L135.296 61.4795Z" fill="white"/>
<path d="M134.813 60.0675C134.589 59.7744 134.168 59.719 133.874 59.9437C133.581 60.1684 133.526 60.5887 133.751 60.8818C133.953 61.1454 134.313 61.2165 134.596 61.0652C134.628 61.0478 134.659 61.0284 134.689 61.0055C134.744 60.9636 134.79 60.9147 134.828 60.8617C134.994 60.6286 134.996 60.3063 134.813 60.0675ZM134.526 60.7922C134.496 60.8151 134.464 60.8332 134.43 60.8462C134.268 60.9113 134.076 60.864 133.964 60.7185C133.83 60.5431 133.863 60.2919 134.038 60.1574C134.214 60.0229 134.465 60.0561 134.6 60.2315C134.69 60.3492 134.705 60.5015 134.652 60.6289C134.625 60.6913 134.583 60.7483 134.526 60.7922Z" fill="white"/>
<path d="M66.6603 59.9307H66.5176V61.5408H66.6603V59.9307Z" fill="#C7C7C7"/>
<path d="M151.201 62.1649C151.07 62.2464 150.924 62.3084 150.766 62.3467C150.357 62.4466 149.946 62.3698 149.614 62.1642C149.29 61.9637 149.04 61.6404 148.942 61.2406C148.745 60.4317 149.24 59.6157 150.05 59.4185C150.859 59.2206 151.676 59.7163 151.874 60.5253C152.033 61.1765 151.742 61.8315 151.201 62.1649Z" fill="#F79725"/>
<path d="M150.867 60.7109C150.867 60.9641 150.661 61.1698 150.407 61.1698C150.154 61.1698 149.948 60.9645 149.948 60.7109C149.948 60.4573 150.153 60.252 150.407 60.252C150.661 60.2523 150.867 60.4576 150.867 60.7109Z" fill="white"/>
<path d="M151.201 61.9761V62.1652C151.07 62.2467 150.924 62.3088 150.766 62.347C150.357 62.4469 149.946 62.3702 149.614 62.1646V61.9761C149.614 61.5394 149.969 61.1836 150.408 61.1836C150.846 61.1836 151.201 61.5394 151.201 61.9761Z" fill="white"/>
<path d="M145.975 62.3902H144.926V62.0189C144.926 61.9985 144.914 61.979 144.894 61.969C144.855 61.9492 144.817 61.927 144.78 61.9029C144.762 61.8911 144.739 61.8895 144.721 61.8999L144.398 62.0857L143.874 61.1785L144.197 60.9923C144.214 60.9823 144.225 60.9622 144.223 60.939C144.222 60.9179 144.221 60.8961 144.221 60.874C144.221 60.8522 144.222 60.8307 144.223 60.8092C144.225 60.7861 144.214 60.766 144.197 60.7556L143.874 60.5698L144.399 59.6622L144.721 59.8484C144.74 59.8588 144.762 59.8574 144.781 59.8454C144.816 59.8216 144.855 59.7994 144.895 59.7793C144.914 59.7696 144.926 59.7501 144.926 59.7297V59.3584H145.975V59.7297C145.975 59.7505 145.987 59.7696 146.008 59.7796C146.046 59.7994 146.085 59.8216 146.121 59.8457C146.141 59.8584 146.164 59.8588 146.181 59.8484L146.503 59.6622L147.027 60.5698L146.704 60.7556C146.686 60.7656 146.676 60.7861 146.678 60.8092C146.679 60.8304 146.679 60.8522 146.679 60.8736C146.679 60.8951 146.679 60.9169 146.678 60.9384C146.676 60.9612 146.686 60.9816 146.704 60.992L147.027 61.1785L146.503 62.0853L146.181 61.8999C146.162 61.8895 146.14 61.8908 146.121 61.9026C146.085 61.9264 146.047 61.9485 146.007 61.969C145.987 61.979 145.975 61.9981 145.975 62.0186V62.3902H145.975ZM145.187 62.1293H145.713V62.0189C145.713 61.8999 145.78 61.7919 145.888 61.7365C145.92 61.7208 145.949 61.7037 145.978 61.6849C146.079 61.6182 146.207 61.6148 146.311 61.6738L146.407 61.7295L146.67 61.2741L146.573 61.2181C146.47 61.1584 146.41 61.0463 146.416 60.9256L146.418 60.8743L146.416 60.8233C146.41 60.7016 146.471 60.5896 146.573 60.5302L146.669 60.4749L146.406 60.0198L146.311 60.0748C146.207 60.1351 146.079 60.1304 145.978 60.0644C145.949 60.0452 145.919 60.0281 145.888 60.0127C145.78 59.9574 145.713 59.8491 145.713 59.7303V59.62H145.187V59.7303C145.187 59.8494 145.12 59.9577 145.013 60.0127C144.981 60.0285 144.952 60.0456 144.922 60.0644C144.821 60.1304 144.693 60.1348 144.589 60.0748L144.494 60.0198L144.231 60.4749L144.327 60.5302C144.43 60.5892 144.49 60.7016 144.484 60.8233L144.482 60.8746L144.484 60.9263C144.49 61.048 144.43 61.16 144.328 61.2194L144.231 61.2751L144.494 61.7302L144.59 61.6745C144.693 61.6155 144.821 61.6188 144.923 61.6852C144.953 61.7043 144.982 61.7214 145.013 61.7369C145.121 61.7922 145.188 61.9002 145.188 62.0196V62.1293H145.187ZM145.45 61.649C145.023 61.649 144.675 61.3016 144.675 60.8743C144.675 60.447 145.023 60.0996 145.45 60.0996C145.878 60.0996 146.226 60.447 146.226 60.8743C146.226 61.3016 145.878 61.649 145.45 61.649ZM145.45 60.3605C145.167 60.3605 144.936 60.5912 144.936 60.8743C144.936 61.1577 145.167 61.3881 145.45 61.3881C145.734 61.3881 145.965 61.1577 145.965 60.8743C145.965 60.5912 145.734 60.3605 145.45 60.3605Z" fill="#DBDBDB"/>
<path d="M155.865 72.9995H59.1499V78.4754H155.865V72.9995Z" fill="#EBEBEB"/>
<path d="M65.0872 74.915H63.4404V76.5601H65.0872V74.915Z" fill="white"/>
<path d="M72.0816 76.5601H70.4348L71.1063 75.7377L70.4348 74.915H72.0816L72.753 75.7377L72.0816 76.5601Z" fill="white"/>
<path d="M67.8507 74.915L68.1179 75.4567L68.7162 75.5435L68.2834 75.9651L68.3855 76.5601L67.8507 76.279L67.3155 76.5601L67.4176 75.9651L66.9849 75.5435L67.5831 75.4567L67.8507 74.915Z" fill="#F79725"/>
<path d="M87.0513 75.4033H73.9346V76.0732H87.0513V75.4033Z" fill="#263238"/>
<path d="M148.673 75.4033H136.766V76.0732H148.673V75.4033Z" fill="#263238"/>
<path d="M131.762 75.4028H91.0557V76.0727H131.762V75.4028Z" fill="#455A64"/>
<path d="M65.0872 80.3906H63.4404V82.0356H65.0872V80.3906Z" fill="white" stroke="#EBEBEB" stroke-width="0.176127" stroke-miterlimit="10"/>
<path d="M72.0816 82.0356H70.4348L71.1063 81.213L70.4348 80.3906H72.0816L72.753 81.213L72.0816 82.0356Z" fill="white" stroke="#EBEBEB" stroke-width="0.176127" stroke-miterlimit="10"/>
<path d="M67.8502 80.3906L68.1175 80.9319L68.7157 81.0188L68.283 81.4403L68.385 82.0356L67.8502 81.7546L67.3151 82.0356L67.4171 81.4403L66.9844 81.0188L67.5826 80.9319L67.8502 80.3906Z" fill="#F79725"/>
<path d="M87.0508 80.8784H73.9341V81.5483H87.0508V80.8784Z" fill="#263238"/>
<path d="M148.673 80.8784H136.766V81.5483H148.673V80.8784Z" fill="#263238"/>
<path d="M131.762 80.8784H91.0552V81.5483H131.762V80.8784Z" fill="#455A64"/>
<path d="M155.864 83.9507H59.1494V89.4266H155.864V83.9507Z" fill="#EBEBEB"/>
<path d="M65.0872 85.8657H63.4404V87.5107H65.0872V85.8657Z" fill="white"/>
<path d="M72.082 87.5107H70.4353L71.1068 86.6884L70.4353 85.8657H72.082L72.7535 86.6884L72.082 87.5107Z" fill="white"/>
<path d="M67.8507 85.8657L68.1179 86.4074L68.7162 86.4942L68.2834 86.9158L68.3855 87.5107L67.8507 87.23L67.3155 87.5107L67.4176 86.9158L66.9849 86.4942L67.5831 86.4074L67.8507 85.8657Z" fill="white"/>
<path d="M87.0508 86.354H73.9341V87.0239H87.0508V86.354Z" fill="#DBDBDB"/>
<path d="M148.673 86.354H136.766V87.0239H148.673V86.354Z" fill="#DBDBDB"/>
<path d="M131.762 86.354H91.0557V87.0239H131.762V86.354Z" fill="#C7C7C7"/>
<path d="M65.0872 91.3423H63.4404V92.9873H65.0872V91.3423Z" fill="white" stroke="#EBEBEB" stroke-width="0.176127" stroke-miterlimit="10"/>
<path d="M72.0811 92.9868H70.4343L71.1058 92.1645L70.4343 91.3418H72.0811L72.7525 92.1645L72.0811 92.9868Z" fill="white" stroke="#EBEBEB" stroke-width="0.176127" stroke-miterlimit="10"/>
<path d="M67.8507 91.3423L68.1179 91.8839L68.7162 91.9708L68.2834 92.392L68.3855 92.9873L67.8507 92.7063L67.3155 92.9873L67.4176 92.392L66.9849 91.9708L67.5831 91.8839L67.8507 91.3423Z" fill="#F79725"/>
<path d="M87.0513 91.8301H73.9346V92.5H87.0513V91.8301Z" fill="#DBDBDB"/>
<path d="M148.673 91.8306H136.765V92.5005H148.673V91.8306Z" fill="#DBDBDB"/>
<path d="M131.762 91.8301H91.0557V92.5H131.762V91.8301Z" fill="#C7C7C7"/>
<path d="M155.864 94.9019H59.1494V100.378H155.864V94.9019Z" fill="#EBEBEB"/>
<path d="M65.0872 96.8169H63.4404V98.4619H65.0872V96.8169Z" fill="white"/>
<path d="M72.0816 98.4619H70.4348L71.1063 97.6392L70.4348 96.8169H72.0816L72.753 97.6392L72.0816 98.4619Z" fill="white"/>
<path d="M67.8507 96.8169L68.1179 97.3582L68.7162 97.4451L68.2834 97.8666L68.3855 98.4619L67.8507 98.1809L67.3155 98.4619L67.4176 97.8666L66.9849 97.4451L67.5831 97.3582L67.8507 96.8169Z" fill="#F79725"/>
<path d="M87.0508 97.3052H73.9341V97.9751H87.0508V97.3052Z" fill="#DBDBDB"/>
<path d="M148.673 97.3047H136.765V97.9746H148.673V97.3047Z" fill="#DBDBDB"/>
<path d="M131.762 97.3052H91.0552V97.9751H131.762V97.3052Z" fill="#C7C7C7"/>
<path d="M65.0872 102.293H63.4404V103.938H65.0872V102.293Z" fill="white" stroke="#EBEBEB" stroke-width="0.176127" stroke-miterlimit="10"/>
<path d="M72.0816 103.938H70.4348L71.1063 103.116L70.4348 102.293H72.0816L72.753 103.116L72.0816 103.938Z" fill="white" stroke="#EBEBEB" stroke-width="0.176127" stroke-miterlimit="10"/>
<path d="M67.8507 102.293L68.1179 102.835L68.7162 102.922L68.2834 103.344L68.3855 103.938L67.8507 103.657L67.3155 103.938L67.4176 103.344L66.9849 102.922L67.5831 102.835L67.8507 102.293Z" fill="white" stroke="#EBEBEB" stroke-width="0.176127" stroke-miterlimit="10"/>
<path d="M87.0513 102.782H73.9346V103.452H87.0513V102.782Z" fill="#DBDBDB"/>
<path d="M148.673 102.782H136.765V103.452H148.673V102.782Z" fill="#DBDBDB"/>
<path d="M131.762 102.782H91.0557V103.452H131.762V102.782Z" fill="#C7C7C7"/>
<path d="M155.865 105.854H59.1499V111.33H155.865V105.854Z" fill="#EBEBEB"/>
<path d="M65.0872 107.77H63.4404V109.415H65.0872V107.77Z" fill="white"/>
<path d="M72.0816 109.415H70.4348L71.1063 108.592L70.4348 107.77H72.0816L72.753 108.592L72.0816 109.415Z" fill="white"/>
<path d="M67.8502 107.77L68.1175 108.311L68.7157 108.398L68.283 108.819L68.385 109.415L67.8502 109.134L67.3151 109.415L67.4171 108.819L66.9844 108.398L67.5826 108.311L67.8502 107.77Z" fill="#F79725"/>
<path d="M87.0508 108.258H73.9341V108.928H87.0508V108.258Z" fill="#DBDBDB"/>
<path d="M148.672 108.258H136.765V108.928H148.672V108.258Z" fill="#DBDBDB"/>
<path d="M131.762 108.258H91.0552V108.928H131.762V108.258Z" fill="#C7C7C7"/>
<path d="M65.0872 113.245H63.4404V114.89H65.0872V113.245Z" fill="white" stroke="#EBEBEB" stroke-width="0.176127" stroke-miterlimit="10"/>
<path d="M72.0811 114.89H70.4343L71.1058 114.067L70.4343 113.245H72.0811L72.7525 114.067L72.0811 114.89Z" fill="white" stroke="#EBEBEB" stroke-width="0.176127" stroke-miterlimit="10"/>
<path d="M67.8507 113.245L68.1179 113.786L68.7162 113.873L68.2834 114.295L68.3855 114.89L67.8507 114.609L67.3155 114.89L67.4176 114.295L66.9849 113.873L67.5831 113.786L67.8507 113.245Z" fill="white" stroke="#EBEBEB" stroke-width="0.176127" stroke-miterlimit="10"/>
<path d="M87.0513 113.733H73.9346V114.403H87.0513V113.733Z" fill="#DBDBDB"/>
<path d="M148.673 113.733H136.765V114.403H148.673V113.733Z" fill="#DBDBDB"/>
<path d="M131.762 113.733H91.0557V114.403H131.762V113.733Z" fill="#C7C7C7"/>
<path d="M155.865 116.806H59.1499V122.282H155.865V116.806Z" fill="#EBEBEB"/>
<path d="M65.0872 118.721H63.4404V120.366H65.0872V118.721Z" fill="white"/>
<path d="M72.0811 120.366H70.4343L71.1058 119.543L70.4343 118.721H72.0811L72.7525 119.543L72.0811 120.366Z" fill="white"/>
<path d="M67.8507 118.721L68.1179 119.262L68.7162 119.349L68.2834 119.771L68.3855 120.366L67.8507 120.085L67.3155 120.366L67.4176 119.771L66.9849 119.349L67.5831 119.262L67.8507 118.721Z" fill="white"/>
<path d="M87.0508 119.208H73.9341V119.878H87.0508V119.208Z" fill="#DBDBDB"/>
<path d="M148.672 119.209H136.764V119.879H148.672V119.209Z" fill="#DBDBDB"/>
<path d="M131.762 119.209H91.0552V119.879H131.762V119.209Z" fill="#C7C7C7"/>
<path d="M65.0872 124.196H63.4404V125.841H65.0872V124.196Z" fill="white" stroke="#EBEBEB" stroke-width="0.176127" stroke-miterlimit="10"/>
<path d="M72.0816 125.841H70.4348L71.1063 125.019L70.4348 124.196H72.0816L72.753 125.019L72.0816 125.841Z" fill="white" stroke="#EBEBEB" stroke-width="0.176127" stroke-miterlimit="10"/>
<path d="M67.8507 124.196L68.1179 124.738L68.7162 124.824L68.2834 125.246L68.3855 125.841L67.8507 125.56L67.3155 125.841L67.4176 125.246L66.9849 124.824L67.5831 124.738L67.8507 124.196Z" fill="white" stroke="#EBEBEB" stroke-width="0.176127" stroke-miterlimit="10"/>
<path d="M87.0508 124.684H73.9341V125.354H87.0508V124.684Z" fill="#DBDBDB"/>
<path d="M148.673 124.685H136.765V125.354H148.673V124.685Z" fill="#DBDBDB"/>
<path d="M131.762 124.684H91.0557V125.354H131.762V124.684Z" fill="#C7C7C7"/>
<path d="M155.864 127.757H59.1494V133.233H155.864V127.757Z" fill="#EBEBEB"/>
<path d="M65.0872 129.672H63.4404V131.317H65.0872V129.672Z" fill="white"/>
<path d="M72.0816 131.317H70.4348L71.1063 130.495L70.4348 129.672H72.0816L72.753 130.495L72.0816 131.317Z" fill="white"/>
<path d="M67.8507 129.672L68.1179 130.214L68.7162 130.3L68.2834 130.722L68.3855 131.317L67.8507 131.036L67.3155 131.317L67.4176 130.722L66.9849 130.3L67.5831 130.214L67.8507 129.672Z" fill="#F79725"/>
<path d="M87.0504 130.16H73.9336V130.83H87.0504V130.16Z" fill="#DBDBDB"/>
<path d="M148.673 130.16H136.766V130.83H148.673V130.16Z" fill="#DBDBDB"/>
<path d="M131.763 130.16H91.0562V130.83H131.763V130.16Z" fill="#C7C7C7"/>
<path d="M87.0507 68.0591H68.7427V70.0189H87.0507V68.0591Z" fill="#DBDBDB"/>
<path d="M65.9342 68.0596H63.4404V70.0195H65.9342V68.0596Z" fill="#DBDBDB"/>
<path d="M65.9379 68.0589C65.8372 68.1676 65.7344 68.2716 65.6327 68.3782C65.5303 68.4828 65.4276 68.5871 65.3245 68.6904C65.2171 68.7984 65.109 68.9051 65.0009 69.0114C64.9975 69.0147 64.9945 69.0181 64.9911 69.0218C64.8954 69.1154 64.7994 69.2089 64.7034 69.3025L64.6893 69.3156L64.6755 69.3025C64.5795 69.2089 64.4838 69.1154 64.3885 69.0211C64.3851 69.0181 64.3818 69.0147 64.3784 69.0114C64.27 68.9051 64.1622 68.7984 64.0544 68.6898C63.9517 68.5868 63.849 68.4825 63.7466 68.3779C63.6449 68.2709 63.5421 68.1673 63.4414 68.0586C63.5485 68.1515 63.6539 68.2491 63.76 68.3447C63.8658 68.4416 63.9715 68.5388 64.0766 68.6374C64.1934 68.7464 64.3106 68.8575 64.4271 68.9695C64.4271 68.9695 64.4274 68.9695 64.4278 68.9701C64.5151 69.0533 64.6023 69.1372 64.69 69.221C64.7769 69.1372 64.8642 69.0526 64.9518 68.9701C64.9522 68.9691 64.9525 68.9691 64.9525 68.9691C65.069 68.8578 65.1858 68.7468 65.303 68.6371C65.4081 68.5388 65.5132 68.4413 65.6189 68.3447C65.7254 68.2498 65.8308 68.1522 65.9379 68.0589Z" fill="white"/>
<path d="M64.4312 68.9663C64.4302 68.9673 64.4292 68.9693 64.4282 68.9703C64.4151 68.9874 64.402 69.0049 64.3889 69.0213C64.3264 69.1022 64.262 69.18 64.1968 69.2551C64.1172 69.3481 64.036 69.4373 63.954 69.5255C63.8717 69.6124 63.7895 69.6983 63.7048 69.7812C63.6205 69.8637 63.5352 69.9449 63.4473 70.019C63.5232 69.9174 63.6017 69.8224 63.6813 69.7302C63.7613 69.6372 63.8425 69.548 63.9241 69.4594C64.0067 69.3722 64.089 69.286 64.1736 69.2031C64.2408 69.1371 64.309 69.0723 64.3788 69.0113C64.395 68.9968 64.4111 68.9831 64.4275 68.9693C64.4285 68.9683 64.4299 68.9673 64.4312 68.9663Z" fill="white"/>
<path d="M65.9322 70.019C65.8442 69.9449 65.7586 69.864 65.6746 69.7812C65.5903 69.6983 65.5077 69.6124 65.4251 69.5255C65.3435 69.437 65.2619 69.3481 65.1823 69.2551C65.1175 69.18 65.0533 69.1028 64.9909 69.022C64.9775 69.0049 64.9644 68.9874 64.9513 68.9703C64.9503 68.9693 64.9492 68.9673 64.9482 68.9663C64.9492 68.9673 64.9509 68.9687 64.9519 68.9693C64.9684 68.9838 64.9845 68.9975 65.0006 69.0119C65.0705 69.073 65.1383 69.1377 65.2058 69.2038C65.2901 69.2867 65.3727 69.3726 65.455 69.4601C65.5366 69.5487 65.6182 69.6376 65.6978 69.7308C65.7777 69.8224 65.8566 69.9174 65.9322 70.019Z" fill="white"/>
<path d="M117.861 68.0601H99.5532V70.0198H117.861V68.0601Z" fill="#DBDBDB"/>
<path d="M95.3794 68.7245C95.3794 68.9537 95.1934 69.1395 94.964 69.1395C94.7346 69.1395 94.5486 68.9537 94.5486 68.7245C94.5486 68.4954 94.7346 68.3096 94.964 68.3096C95.1937 68.3096 95.3794 68.4951 95.3794 68.7245Z" fill="#DBDBDB"/>
<path d="M95.6819 69.868V70.0196H94.2456V69.868C94.2456 69.4736 94.5676 69.1523 94.9654 69.1523C95.3599 69.152 95.6819 69.4736 95.6819 69.868Z" fill="#DBDBDB"/>
<path d="M96.4431 68.475C96.4431 68.7042 96.2571 68.89 96.0277 68.89C95.7983 68.89 95.6123 68.7042 95.6123 68.475C95.6123 68.2459 95.7983 68.0601 96.0277 68.0601C96.2571 68.0601 96.4431 68.2459 96.4431 68.475Z" fill="#DBDBDB"/>
<path d="M96.7456 69.6184V69.77H95.3093V69.6184C95.3093 69.224 95.6313 68.9023 96.0291 68.9023C96.4236 68.9027 96.7456 69.224 96.7456 69.6184Z" fill="#DBDBDB"/>
<path d="M148.673 68.0601H130.365V70.0198H148.673V68.0601Z" fill="#DBDBDB"/>
<path d="M127.556 68.063H125.062V70.0216H127.556L128.302 69.0423L127.556 68.063ZM127.576 69.1898C127.496 69.1898 127.429 69.1228 127.429 69.0423C127.429 68.9584 127.496 68.8947 127.576 68.8947C127.66 68.8947 127.724 68.9584 127.724 69.0423C127.724 69.1228 127.66 69.1898 127.576 69.1898Z" fill="#DBDBDB"/>
<path d="M59.1503 54.4526H28.5225V133.23H59.1503V54.4526Z" fill="#F79725"/>
<path d="M54.8689 66.1177H32.8037V71.9621H54.8689V66.1177Z" fill="white"/>
<path d="M35.8803 59.3813H32.8037V59.8763H35.8803V59.3813Z" fill="white"/>
<path d="M35.8803 61.5957H32.8037V62.0907H35.8803V61.5957Z" fill="white"/>
<path d="M35.8803 60.5015H32.8037V60.9965H35.8803V60.5015Z" fill="white"/>
<path d="M43.0768 59.3813H38.801V62.0902H43.0768V59.3813Z" fill="#EBEBEB"/>
<path d="M43.0768 59.3813V62.0902H38.801V59.3813C38.9847 59.4853 39.1653 59.5943 39.3469 59.701C39.5279 59.8093 39.7092 59.9176 39.8888 60.028C40.0892 60.1497 40.2893 60.2734 40.4891 60.3985C40.4911 60.3972 40.4934 60.3959 40.4954 60.3949C40.4934 60.3962 40.4921 60.3982 40.4904 60.3992C40.6401 60.4921 40.7895 60.586 40.9393 60.6796C41.0883 60.586 41.2377 60.4918 41.3875 60.3992C41.3855 60.3979 41.3841 60.3959 41.3824 60.3949C41.3844 60.3962 41.3868 60.3975 41.3888 60.3982C41.5886 60.2738 41.7883 60.15 41.9891 60.0276C42.1687 59.9179 42.3493 59.809 42.5303 59.7013C42.7126 59.5943 42.8932 59.4853 43.0768 59.3813Z" fill="#EBEBEB"/>
<path d="M43.0769 59.3812C42.9044 59.5026 42.7285 59.6186 42.5542 59.7377C42.379 59.8544 42.203 59.9711 42.0264 60.0868C41.8421 60.2072 41.6571 60.3266 41.4722 60.4453C41.4665 60.449 41.4611 60.4531 41.4554 60.4567C41.2915 60.5614 41.1274 60.6657 40.9629 60.7703L40.9384 60.7851L40.9145 60.7703C40.75 60.6657 40.5865 60.5614 40.4227 60.4561C40.417 60.4527 40.4113 60.449 40.4052 60.445C40.2196 60.3263 40.0346 60.2069 39.8506 60.0858C39.6747 59.9711 39.4988 59.8544 39.3235 59.7374C39.1496 59.618 38.9737 59.5019 38.8008 59.3809C38.9844 59.4848 39.165 59.5938 39.3467 59.7005C39.5276 59.8088 39.7089 59.9171 39.8885 60.0275C40.089 60.1492 40.2891 60.273 40.4888 60.3981C40.4895 60.3981 40.4895 60.3981 40.4902 60.3987C40.6399 60.4916 40.7893 60.5855 40.939 60.6791C41.0881 60.5855 41.2375 60.4913 41.3872 60.3987C41.3879 60.3974 41.3879 60.3974 41.3886 60.3974C41.5883 60.273 41.7881 60.1492 41.9888 60.0268C42.1685 59.9171 42.3491 59.8081 42.53 59.7005C42.7127 59.5942 42.8933 59.4852 43.0769 59.3812Z" fill="white"/>
<path d="M40.4955 60.3945C40.4935 60.3959 40.4922 60.3979 40.4905 60.3989C40.468 60.418 40.4455 60.4375 40.423 60.4559C40.3159 60.5465 40.2061 60.633 40.0943 60.7168C39.958 60.8208 39.819 60.9201 39.679 61.019C39.5384 61.1159 39.397 61.2122 39.2527 61.3044C39.1083 61.3966 38.9623 61.4872 38.8115 61.57C38.9411 61.4563 39.0761 61.3507 39.212 61.2474C39.3487 61.1434 39.488 61.0442 39.6277 60.9452C39.769 60.8476 39.91 60.7514 40.0547 60.6591C40.1695 60.5854 40.2867 60.5129 40.4059 60.4448C40.4334 60.4287 40.4613 60.4133 40.4895 60.3979C40.4912 60.3972 40.4935 60.3959 40.4955 60.3945Z" fill="white"/>
<path d="M43.0663 61.5705C42.9156 61.4877 42.7692 61.3975 42.6252 61.3049C42.4808 61.2127 42.3395 61.1164 42.1981 61.0195C42.0581 60.9206 41.9188 60.8213 41.7828 60.7173C41.6717 60.6335 41.5619 60.5473 41.4555 60.4571C41.4323 60.4379 41.4099 60.4185 41.3874 60.3994C41.3853 60.398 41.384 60.396 41.3823 60.395C41.3843 60.3964 41.3867 60.3977 41.3887 60.3984C41.4169 60.4145 41.4444 60.4299 41.4723 60.446C41.5918 60.5141 41.708 60.5865 41.8235 60.6603C41.9678 60.7525 42.1092 60.8488 42.2498 60.9464C42.3898 61.0453 42.5292 61.1446 42.6651 61.2485C42.8018 61.3512 42.9367 61.4568 43.0663 61.5705Z" fill="white"/>
<path opacity="0.1" d="M59.1498 77.0586H28.522V81.2132H59.1498V77.0586Z" fill="#020100"/>
<path d="M50.5649 77.9507H32.8037V80.391H50.5649V77.9507Z" fill="white"/>
<path d="M50.5649 82.7314H32.8037V85.1718H50.5649V82.7314Z" fill="white"/>
<path d="M50.5649 87.5112H32.8037V89.9512H50.5649V87.5112Z" fill="white"/>
<path d="M50.5649 92.292H32.8037V94.7323H50.5649V92.292Z" fill="white"/>
<path d="M54.3351 97.0723H36.5742V99.5126H54.3351V97.0723Z" fill="#455A64"/>
<path d="M54.3351 101.853H36.5742V104.293H54.3351V101.853Z" fill="#455A64"/>
<path d="M50.5649 106.633H32.8037V109.074H50.5649V106.633Z" fill="white"/>
<path d="M50.5644 111.414H32.8032V113.854H50.5644V111.414Z" fill="white"/>
<path d="M181.835 43.2125C185.792 27.2522 176.048 11.1095 160.071 7.15684C144.094 3.20416 127.934 12.9383 123.977 28.8986C120.02 44.859 129.765 61.0016 145.742 64.9543C161.719 68.907 177.879 59.1729 181.835 43.2125Z" fill="#D3E7EE"/>
<path d="M173.245 23.1768H132.56V48.9514H173.245V23.1768Z" fill="white"/>
<path d="M173.248 23.1768C171.604 24.7465 169.93 26.2497 168.275 27.7951C166.607 29.3069 164.933 30.8186 163.253 32.3133C161.499 33.8751 159.74 35.4199 157.98 36.9567C157.925 37.0061 157.876 37.0562 157.821 37.1062C156.263 38.4599 154.699 39.8142 153.135 41.1679L152.903 41.3589L152.677 41.1679C151.113 39.8142 149.555 38.4599 147.997 37.0977C147.942 37.0562 147.887 37.0061 147.832 36.9567C146.066 35.4199 144.307 33.8751 142.553 32.3054C140.879 30.8186 139.205 29.3069 137.537 27.7951C135.881 26.2497 134.207 24.7465 132.564 23.1768C134.311 24.5225 136.028 25.9342 137.757 27.3129C139.48 28.7167 141.203 30.1204 142.913 31.5492C144.82 33.1275 146.726 34.7302 148.626 36.35C148.632 36.35 148.632 36.35 148.638 36.3586C150.062 37.5627 151.485 38.7754 152.909 39.9882C154.326 38.7754 155.75 37.5542 157.173 36.3586C157.18 36.3421 157.18 36.3421 157.186 36.3421C159.086 34.7308 160.986 33.1275 162.898 31.5413C164.609 30.121 166.326 28.7087 168.049 27.3135C169.784 25.9342 171.501 24.5225 173.248 23.1768Z" fill="#F79725"/>
<path d="M148.686 36.938C148.668 36.9502 148.655 36.9685 148.637 36.9807C148.423 37.1638 148.209 37.3469 147.995 37.5239C146.975 38.3846 145.93 39.2086 144.867 40.0082C143.572 40.997 142.246 41.9431 140.914 42.8831C139.576 43.8047 138.231 44.7203 136.857 45.5992C135.482 46.4782 134.095 47.3388 132.659 48.1262C133.893 47.0458 135.176 46.0387 136.472 45.056C137.773 44.0672 139.099 43.1211 140.425 42.1811C141.769 41.2533 143.113 40.3378 144.488 39.4588C145.582 38.7569 146.694 38.0672 147.831 37.4202C148.093 37.2676 148.356 37.1211 148.625 36.9746C148.643 36.9624 148.668 36.9502 148.686 36.938Z" fill="#F79725"/>
<path d="M173.152 48.1262C171.716 47.3388 170.323 46.4782 168.954 45.5992C167.579 44.7203 166.235 43.8047 164.891 42.8831C163.559 41.9431 162.233 40.997 160.937 40.0082C159.88 39.2086 158.836 38.3907 157.821 37.5301C157.601 37.3469 157.388 37.1638 157.174 36.9807C157.155 36.9685 157.143 36.9502 157.125 36.938C157.143 36.9502 157.168 36.9624 157.186 36.9685C157.455 37.1211 157.717 37.2676 157.98 37.4202C159.117 38.0672 160.223 38.7569 161.322 39.4588C162.697 40.3378 164.041 41.2533 165.38 42.1811C166.712 43.1211 168.038 44.0672 169.333 45.056C170.634 46.0387 171.917 47.0458 173.152 48.1262Z" fill="#F79725"/>
<path d="M170.924 29.3598C174.351 28.1853 176.176 24.4578 175.001 21.0341C173.825 17.6105 170.094 15.7872 166.666 16.9617C163.239 18.1362 161.414 21.8638 162.59 25.2874C163.765 28.7111 167.497 30.5344 170.924 29.3598Z" fill="#F79725"/>
<path d="M168.073 24.616V19.2825C168.073 18.8864 168.404 18.5562 168.8 18.5562C169.195 18.5562 169.513 18.8864 169.513 19.2825V24.616C169.513 25.0255 169.195 25.3423 168.8 25.3423C168.404 25.3423 168.073 25.0255 168.073 24.616ZM168.8 27.7979C168.403 27.7979 168.073 27.4811 168.073 27.0715V26.8078C168.073 26.4117 168.404 26.0815 168.8 26.0815C169.195 26.0815 169.513 26.4117 169.513 26.8078V27.0715C169.513 27.4811 169.195 27.7979 168.8 27.7979Z" fill="white"/>
</svg>
