<svg width="194" height="147" viewBox="0 0 194 147" fill="none" xmlns="http://www.w3.org/2000/svg">
<path d="M142.303 9.52934C144.361 8.28612 146.577 7.3269 148.892 6.67778L150.243 0.190982L161.214 0L162.795 6.41436C165.121 6.99157 167.359 7.87752 169.45 9.04859L174.991 5.41993L182.898 13.0329L179.465 18.6965C180.704 20.7546 181.662 22.9695 182.312 25.282L188.808 26.6321L188.999 37.5971L182.555 39.171C181.978 41.4958 181.091 43.7329 179.92 45.8225L183.55 51.3675L175.933 59.2702L170.267 55.8391C168.208 57.0776 165.992 58.0345 163.678 58.6841L162.36 65.1775L151.396 65.3685L149.814 58.9278C147.488 58.3506 145.25 57.4646 143.16 56.2935L137.618 59.9288L129.711 52.3093L133.151 46.6457C131.907 44.5891 130.947 42.3739 130.298 40.0601L123.808 38.743L123.61 27.7846L130.054 26.204C130.631 23.8792 131.518 21.6422 132.69 19.5526L129.059 14.0141L136.676 6.11142L142.303 9.52934ZM148.154 24.1296C146.536 25.8037 145.451 27.9199 145.037 30.2105C144.623 32.501 144.899 34.8628 145.829 36.9969C146.758 39.1309 148.301 40.9413 150.26 42.1988C152.22 43.4563 154.509 44.1044 156.837 44.0611C159.166 44.0177 161.429 43.2848 163.34 41.9552C165.252 40.6256 166.726 38.759 167.575 36.5918C168.425 34.4246 168.612 32.0542 168.113 29.7807C167.614 27.5071 166.451 25.4327 164.772 23.82C162.527 21.6615 159.518 20.4801 156.403 20.5344C153.288 20.5887 150.322 21.8743 148.154 24.1098V24.1296Z" fill="#95B7C3"/>
<path d="M14.9769 43.5233C16.6887 42.2285 18.5655 41.1677 20.5578 40.3688L21.1508 34.4418L30.9158 33.2695L32.932 38.8607C35.0596 39.1523 37.1384 39.7282 39.1125 40.5729L43.7249 36.806L51.4802 42.8581L48.95 48.2122C50.25 49.9236 51.3137 51.802 52.1127 53.7968L58.0429 54.3895L59.2487 64.1493L53.648 66.1645C53.3585 68.2907 52.7845 70.3684 51.9414 72.3418L55.7038 76.9517L49.6089 84.6963L44.2322 82.1609C42.5222 83.46 40.6451 84.5233 38.6513 85.322L38.0517 91.249L28.2868 92.4541L26.31 86.8564C24.1834 86.5639 22.105 85.9904 20.1295 85.1507L15.5172 88.9111L7.76189 82.8589L10.2921 77.4851C8.99666 75.7743 7.93525 73.8984 7.13593 71.9071L1.2058 71.3078L0 61.548L5.59409 59.5723C5.88587 57.4459 6.46208 55.3682 7.30725 53.3951L3.5449 48.7852L9.59364 41.0339L14.9769 43.5628V43.5233ZM21.5659 56.0359C20.286 57.6798 19.5222 59.6661 19.3712 61.7436C19.2202 63.8212 19.6887 65.8969 20.7175 67.7085C21.7463 69.5201 23.2893 70.9862 25.1515 71.9217C27.0136 72.8572 29.1114 73.22 31.1798 72.9644C33.2482 72.7087 35.1944 71.846 36.7725 70.4853C38.3506 69.1247 39.4897 67.327 40.046 65.3195C40.6022 63.312 40.5507 61.1848 39.8979 59.2065C39.245 57.2283 38.0202 55.4879 36.3781 54.2051C35.2878 53.35 34.0396 52.7182 32.7048 52.3457C31.37 51.9733 29.9748 51.8676 28.5991 52.0345C27.2233 52.2015 25.894 52.638 24.6872 53.3189C23.4804 53.9998 22.4197 54.9119 21.5659 56.003V56.0359Z" fill="#95B7C3"/>
<path d="M173.748 33.6011H25.3306V132.759H173.748V33.6011Z" fill="#DBDBDB"/>
<path d="M172.67 34.8105H26.4091V131.549H172.67V34.8105Z" fill="#6F8EA7"/>
<path d="M193.079 140.194H6V147H193.079V140.194Z" fill="#C7C7C7"/>
<path d="M6 140.194L25.3303 132.759H173.748L193.079 140.194H6Z" fill="#D3E7EE"/>
<path d="M27.0568 137.557L39.5311 132.759H159.548L172.022 137.557H27.0568Z" fill="#6F8EA7"/>
<path d="M164.404 42.1606H34.6748V124.2H164.404V42.1606Z" fill="white"/>
<path d="M164.404 42.1606H34.5653V45.3174H164.404V42.1606Z" fill="#455A64"/>
<path d="M37.0779 43.7393C37.0779 44.1719 36.7268 44.5225 36.2941 44.5225C35.861 44.5225 35.51 44.1719 35.51 43.7393C35.51 43.3068 35.861 42.9565 36.2941 42.9565C36.7272 42.9562 37.0779 43.3068 37.0779 43.7393Z" fill="#C7C7C7"/>
<path d="M40.278 43.7393C40.278 44.1719 39.9269 44.5225 39.4938 44.5225C39.0608 44.5225 38.7101 44.1719 38.7101 43.7393C38.7101 43.3068 39.0611 42.9565 39.4938 42.9565C39.9269 42.9562 40.278 43.3068 40.278 43.7393Z" fill="white"/>
<path d="M43.4792 43.7393C43.4792 44.1719 43.1282 44.5225 42.6951 44.5225C42.2621 44.5225 41.9114 44.1719 41.9114 43.7393C41.9114 43.3068 42.2624 42.9565 42.6951 42.9565C43.1282 42.9562 43.4792 43.3068 43.4792 43.7393Z" fill="#F79725"/>
<path d="M160 60.6924H39.171V87.6505H160V60.6924Z" fill="#F7FAFE"/>
<path d="M59.5771 53.5918H42.1388V58.1515H59.5771V53.5918Z" fill="#F7FAFE"/>
<path d="M157.137 53.5918H147.589V58.1515H157.137V53.5918Z" fill="#F7FAFE"/>
<path d="M144.714 53.5923H129.091V58.152H144.714V53.5923Z" fill="#F7FAFE"/>
<path d="M125.841 53.5923H110.218V58.152H125.841V53.5923Z" fill="#F7FAFE"/>
<path d="M151.569 103.559H45.0756V108.338H151.569V103.559Z" fill="#F7FAFE"/>
<path d="M151.569 94.522H45.0756V99.3011H151.569V94.522Z" fill="#F7FAFE"/>
<path d="M84.2695 78.6289L88.4998 74.4008L96.6579 81.6524L112.681 66.2422L116.609 70.4751L96.0577 89.8062L84.2695 78.6289Z" fill="#4CB463"/>
<path d="M91.1115 68.2028C90.5495 67.7395 90.045 67.2107 89.6087 66.6277C89.1048 66.0987 88.6643 65.5128 88.2961 64.8818C88.8568 65.3499 89.3626 65.8799 89.8038 66.4619C90.3052 66.9901 90.7439 67.5742 91.1115 68.2028Z" fill="#4CB463"/>
<path d="M96.7858 67.5882C96.5881 66.0202 96.4742 64.4428 96.4444 62.8627C96.3297 61.287 96.2988 59.7064 96.3518 58.1274C96.553 59.6951 96.6686 61.2726 96.698 62.8529C96.8128 64.4286 96.8421 66.0093 96.7858 67.5882Z" fill="#4CB463"/>
<path d="M105.559 64.6914C105.171 65.3877 104.711 66.0415 104.187 66.6421C103.727 67.2871 103.201 67.8821 102.616 68.4172C103.002 67.7195 103.461 67.0655 103.987 66.4665C104.444 65.8188 104.971 65.2235 105.559 64.6914Z" fill="#4CB463"/>
</svg>
