<svg width="16" height="16" viewBox="0 0 16 16" fill="none" xmlns="http://www.w3.org/2000/svg">
<path d="M14.0625 12.125V11.5L14.75 11C14.8125 10.9375 14.875 10.875 14.8125 10.8125L14.1875 9.75C14.1875 9.6875 14.0625 9.6875 14 9.6875L13.25 10C13.0625 9.875 12.875 9.75 12.6875 9.6875L12.5625 8.875C12.5625 8.8125 12.5 8.75 12.4375 8.75H11.1875C11.0625 8.75 11 8.8125 11 8.875L10.875 9.6875C10.6875 9.8125 10.5625 9.875 10.375 10L9.625 9.6875C9.5625 9.6875 9.5 9.6875 9.4375 9.75L8.8125 10.8125C8.8125 10.875 8.8125 10.9375 8.875 11L9.5625 11.5V12.125L8.875 12.625C8.8125 12.6875 8.75 12.75 8.8125 12.8125L9.4375 13.875C9.5 13.9375 9.5625 13.9375 9.625 13.9375L10.375 13.625C10.5 13.75 10.6875 13.875 10.875 13.9375L11 14.75C11.0625 14.8125 11.125 14.875 11.1875 14.875H12.4375C12.5 14.875 12.5625 14.8125 12.5625 14.75L12.6875 13.9375C12.875 13.8125 13 13.75 13.1875 13.625L13.9375 13.875C14 13.875 14.0625 13.875 14.125 13.8125L14.75 12.75C14.8125 12.6875 14.8125 12.625 14.75 12.625L14.0625 12.125ZM11.75 12.6875C11.25 12.6875 10.8125 12.25 10.8125 11.75C10.8125 11.25 11.25 10.8125 11.75 10.8125C12.25 10.8125 12.6875 11.25 12.6875 11.75C12.6875 12.25 12.25 12.6875 11.75 12.6875ZM7.375 11.75C7.375 9.3125 9.3125 7.375 11.75 7.375C13 7.375 14.0625 7.875 14.875 8.6875V3C14.875 2.3125 14.3125 1.75 13.625 1.75H2.375C1.6875 1.75 1.125 2.3125 1.125 3V13C1.125 13.6875 1.6875 14.25 2.375 14.25H8.1875C7.6875 13.5625 7.375 12.6875 7.375 11.75ZM2.375 3H13.625V4.875H2.375V3Z" fill="white"/>
</svg>
