<svg width="38" height="38" viewBox="0 0 38 38" fill="none" xmlns="http://www.w3.org/2000/svg">
<rect width="38" height="38" rx="3" fill="#1C347F" fill-opacity="0.15"/>
<path d="M18.3334 20.8835V23.0002C18.3334 23.1891 18.3974 23.3473 18.5254 23.4748C18.6529 23.6028 18.8111 23.6668 19 23.6668C19.1889 23.6668 19.3474 23.6028 19.4754 23.4748C19.6029 23.3473 19.6667 23.1891 19.6667 23.0002V20.8835L20.2667 21.4835C20.3334 21.5502 20.4085 21.6002 20.492 21.6335C20.5751 21.6668 20.6585 21.6806 20.742 21.6748C20.8251 21.6695 20.9056 21.6502 20.9834 21.6168C21.0611 21.5835 21.1334 21.5335 21.2 21.4668C21.3222 21.3335 21.3862 21.1779 21.392 21.0002C21.3974 20.8224 21.3334 20.6668 21.2 20.5335L19.4667 18.8002C19.4 18.7335 19.3278 18.6862 19.25 18.6582C19.1722 18.6306 19.0889 18.6168 19 18.6168C18.9111 18.6168 18.8278 18.6306 18.75 18.6582C18.6722 18.6862 18.6 18.7335 18.5334 18.8002L16.8 20.5335C16.6667 20.6668 16.6029 20.8224 16.6087 21.0002C16.614 21.1779 16.6834 21.3335 16.8167 21.4668C16.95 21.5891 17.1056 21.6531 17.2834 21.6588C17.4611 21.6642 17.6167 21.6002 17.75 21.4668L18.3334 20.8835ZM15 25.6668C14.6334 25.6668 14.3196 25.5364 14.0587 25.2755C13.7974 25.0142 13.6667 24.7002 13.6667 24.3335V13.6668C13.6667 13.3002 13.7974 12.9862 14.0587 12.7248C14.3196 12.4639 14.6334 12.3335 15 12.3335H19.7834C19.9611 12.3335 20.1307 12.3668 20.292 12.4335C20.4529 12.5002 20.5945 12.5946 20.7167 12.7168L23.95 15.9502C24.0722 16.0724 24.1667 16.2139 24.2334 16.3748C24.3 16.5362 24.3334 16.7057 24.3334 16.8835V24.3335C24.3334 24.7002 24.2029 25.0142 23.942 25.2755C23.6807 25.5364 23.3667 25.6668 23 25.6668H15ZM19.6667 16.3335C19.6667 16.5224 19.7307 16.6806 19.8587 16.8082C19.9862 16.9362 20.1445 17.0002 20.3334 17.0002H23L19.6667 13.6668V16.3335Z" fill="#1C347F"/>
</svg>
