<svg width="22" height="23" viewBox="0 0 22 23" fill="none" xmlns="http://www.w3.org/2000/svg">
<path d="M18.2927 3.00336C17.2653 2.06549 16.0443 1.34763 14.6996 0.890892C13.3775 0.44095 11.9619 0.248779 10.5294 0.324763C9.07275 0.401513 7.62639 0.757231 6.27291 1.3716C5.56279 1.69552 4.8837 2.08757 4.2463 2.54161L2.88471 0.611796L0.806896 6.40921L6.96539 6.39544L5.60652 4.46949C6.10659 4.11377 6.63931 3.80433 7.18842 3.5555C8.24041 3.07807 9.36454 2.80153 10.4967 2.74166C11.6122 2.68118 12.7146 2.83084 13.7436 3.18245C15.3388 3.72489 16.6975 4.73432 17.644 6.08011C18.2803 6.98237 18.7166 8.01208 18.9275 9.10888C19.0273 9.63843 19.0744 10.1795 19.0682 10.7248C19.0595 11.2686 18.9985 11.8139 18.886 12.3535C18.5402 13.9924 17.7178 15.5295 16.5196 16.7764C15.6827 17.6384 14.6887 18.3397 13.596 18.8392C12.5434 19.3168 11.4187 19.5932 10.286 19.6528C9.17168 19.7131 8.07046 19.5636 7.04252 19.2125C5.44745 18.6682 4.08833 17.6587 3.13977 16.3136L1.06774 17.7756C2.28876 19.5038 4.03588 20.8016 6.08586 21.5031C7.40732 21.9512 8.82143 22.1432 10.2526 22.0687C12.4756 21.952 14.6566 21.1868 16.5129 19.8723C17.1441 19.4269 17.732 18.9236 18.2678 18.37C19.2983 17.2998 20.1178 16.057 20.6801 14.7116C20.9564 14.0513 21.1679 13.3707 21.3116 12.6793C21.4559 11.9875 21.5341 11.2884 21.5453 10.5913C21.576 8.42524 20.9387 6.34435 19.716 4.61818C19.3016 4.03092 18.8247 3.48992 18.2927 3.00336Z" fill="#15245E"/>
</svg>
