<svg width="24" height="24" viewBox="0 0 24 24" fill="none" xmlns="http://www.w3.org/2000/svg">
<path d="M16.9596 6.92841C16.2693 6.27532 15.4597 5.76357 14.5771 5.42247C13.7094 5.08651 12.7883 4.9198 11.8635 4.93133C10.9231 4.94272 9.99694 5.14031 9.13798 5.51281C8.68736 5.7093 8.25867 5.95205 7.85865 6.23725L6.92499 4.91395L5.73885 8.72094L9.72317 8.87988L8.79138 7.55922C9.10523 7.3358 9.44146 7.14412 9.78995 6.99328C10.4576 6.7038 11.1774 6.55019 11.9083 6.54119C12.6284 6.53134 13.3458 6.66117 14.0211 6.92359C15.068 7.32865 15.9747 8.03848 16.6239 8.96122C17.0602 9.57991 17.3707 10.2781 17.537 11.0148C17.616 11.3704 17.6613 11.7323 17.6722 12.0956C17.6814 12.4578 17.6568 12.8195 17.5987 13.176C17.4198 14.2589 16.9296 15.2608 16.1884 16.0591C15.6704 16.6107 15.0464 17.051 14.353 17.3541C13.685 17.6436 12.9648 17.7972 12.2336 17.806C11.5142 17.8157 10.7976 17.686 10.1229 17.424C9.07604 17.0177 8.1691 16.3078 7.51864 15.3855L6.21789 16.3032C7.0551 17.4883 8.22096 18.4009 9.56649 18.9244C10.4337 19.2591 11.3539 19.4257 12.2779 19.4151C13.7131 19.398 15.1034 18.9476 16.2685 18.1222C16.6648 17.8426 17.0314 17.5232 17.363 17.1689C18.0005 16.4838 18.4968 15.6779 18.8239 14.7966C18.9847 14.3641 19.103 13.9162 19.177 13.4594C19.2515 13.0023 19.2831 12.5385 19.2713 12.0742C19.232 10.6315 18.7628 9.22726 17.9246 8.04347C17.6404 7.64077 17.3171 7.26721 16.9596 6.92841Z" fill="#15245E"/>
</svg>
