<svg width="20" height="20" viewBox="0 0 20 20" fill="none" xmlns="http://www.w3.org/2000/svg">
<path d="M8.54176 0H11.4584C11.6242 0 11.7832 0.065848 11.9004 0.183058C12.0176 0.300269 12.0834 0.45924 12.0834 0.625C12.0834 0.79076 12.0176 0.949732 11.9004 1.06694C11.7832 1.18415 11.6242 1.25 11.4584 1.25H10.6251V2.315C12.3501 2.44208 13.9922 3.10523 15.3218 4.21167L16.4334 3.1C16.552 2.98966 16.7087 2.92957 16.8706 2.93237C17.0325 2.93517 17.1871 3.00063 17.3018 3.115C17.4161 3.22967 17.4816 3.38421 17.4844 3.54614C17.4872 3.70807 17.4271 3.86478 17.3168 3.98333L16.2209 5.08C17.5844 6.60484 18.3367 8.57949 18.3334 10.625C18.3334 15.2275 14.6026 18.9583 10.0001 18.9583C5.39759 18.9583 1.66676 15.2275 1.66676 10.625C1.66352 8.57949 2.41581 6.60484 3.77926 5.08L2.68343 3.98333C2.57308 3.86478 2.513 3.70807 2.5158 3.54614C2.51859 3.38421 2.58406 3.22967 2.69843 3.115C2.81309 3.00063 2.96764 2.93517 3.12957 2.93237C3.2915 2.92957 3.44821 2.98966 3.56676 3.1L4.67926 4.21167C6.00866 3.10558 7.65042 2.44247 9.37509 2.315V1.25H8.54176C8.376 1.25 8.21703 1.18415 8.09982 1.06694C7.98261 0.949732 7.91676 0.79076 7.91676 0.625C7.91676 0.45924 7.98261 0.300269 8.09982 0.183058C8.21703 0.065848 8.376 0 8.54176 0ZM10.0001 17.7083C10.9303 17.7083 11.8515 17.525 12.7109 17.169C13.5703 16.8129 14.3512 16.2911 15.0089 15.6333C15.6667 14.9754 16.1884 14.1945 16.5444 13.335C16.9003 12.4756 17.0835 11.5544 17.0834 10.6242C17.0834 9.69392 16.9001 8.77278 16.544 7.91336C16.188 7.05395 15.6662 6.27307 15.0083 5.61532C14.3505 4.95757 13.5696 4.43583 12.7101 4.07989C11.8507 3.72395 10.9295 3.54078 9.99926 3.54083C8.12053 3.54094 6.3188 4.28737 4.99041 5.61591C3.66203 6.94445 2.91581 8.74627 2.91593 10.625C2.91604 12.5037 3.66246 14.3055 4.991 15.6338C6.31954 16.9622 8.12136 17.7084 10.0001 17.7083ZM13.3584 7.26667C13.4755 7.38385 13.5412 7.54271 13.5412 7.70833C13.5412 7.87396 13.4755 8.03281 13.3584 8.15L11.3743 10.135C11.4856 10.4469 11.4874 10.7874 11.3795 11.1004C11.2716 11.4135 11.0603 11.6805 10.7805 11.8576C10.5006 12.0346 10.1688 12.1111 9.83972 12.0746C9.5106 12.038 9.20373 11.8905 8.96957 11.6564C8.73541 11.4222 8.58792 11.1153 8.55135 10.7862C8.51478 10.4571 8.59132 10.1253 8.76836 9.84547C8.94541 9.56562 9.21243 9.35436 9.5255 9.24644C9.83857 9.13852 10.179 9.14037 10.4909 9.25167L12.4743 7.26667C12.5323 7.20859 12.6012 7.16252 12.6771 7.13108C12.7529 7.09965 12.8342 7.08347 12.9163 7.08347C12.9985 7.08347 13.0798 7.09965 13.1556 7.13108C13.2315 7.16252 13.3004 7.20859 13.3584 7.26667Z" fill="#15245E"/>
</svg>
