<svg width="22" height="22" viewBox="0 0 22 22" fill="none" xmlns="http://www.w3.org/2000/svg">
<path d="M10.9313 13.541C11.5523 13.541 12.1478 13.2943 12.587 12.8552C13.0261 12.4161 13.2728 11.8205 13.2728 11.1995C13.2728 11.131 13.2696 11.063 13.2638 10.9959L10.7277 13.532C10.7948 13.5379 10.8625 13.541 10.9313 13.541ZM18.6816 3.95684L17.7885 3.06457C17.7571 3.03323 17.7146 3.01562 17.6703 3.01562C17.6259 3.01562 17.5834 3.03323 17.552 3.06457L15.2666 5.35065C14.0058 4.70633 12.5886 4.38416 11.0149 4.38416C6.99676 4.38416 3.99883 6.47686 2.02111 10.6623C1.94162 10.8306 1.90039 11.0144 1.90039 11.2006C1.90039 11.3867 1.94162 11.5706 2.02111 11.7389C2.81136 13.4035 3.76294 14.7376 4.87584 15.7414L2.66418 17.9522C2.63284 17.9836 2.61524 18.0261 2.61524 18.0704C2.61524 18.1148 2.63284 18.1573 2.66418 18.1887L3.55666 19.0811C3.58803 19.1125 3.63055 19.1301 3.67489 19.1301C3.71923 19.1301 3.76175 19.1125 3.79311 19.0811L18.6816 4.1935C18.6971 4.17797 18.7095 4.15952 18.7179 4.13922C18.7263 4.11891 18.7306 4.09715 18.7306 4.07517C18.7306 4.05319 18.7263 4.03143 18.7179 4.01113C18.7095 3.99082 18.6971 3.97238 18.6816 3.95684ZM7.25181 11.1995C7.25176 10.564 7.41631 9.9393 7.72945 9.38627C8.04259 8.83323 8.49363 8.37074 9.03864 8.04383C9.58365 7.71693 10.204 7.53676 10.8394 7.52089C11.4747 7.50501 12.1033 7.65397 12.664 7.95325L11.6475 8.9697C11.2376 8.83844 10.7994 8.82264 10.3811 8.92401C9.9628 9.02539 9.58049 9.24003 9.27613 9.54439C8.97177 9.84875 8.75713 10.2311 8.65575 10.6494C8.55438 11.0677 8.57018 11.5059 8.70144 11.9158L7.68499 12.9322C7.39975 12.3993 7.25092 11.804 7.25181 11.1995Z" fill="#5C5C7E" fill-opacity="0.25"/>
<path d="M20.0081 10.6602C19.2722 9.11038 18.3963 7.8466 17.3804 6.8689L14.367 9.88251C14.621 10.5465 14.6773 11.2699 14.5291 11.9652C14.3809 12.6605 14.0345 13.298 13.5318 13.8007C13.0291 14.3034 12.3916 14.6498 11.6963 14.798C11.001 14.9462 10.2776 14.8899 9.61359 14.6359L7.05762 17.1919C8.24341 17.7406 9.5623 18.015 11.0143 18.015C15.0324 18.015 18.0304 15.9223 20.0081 11.7369C20.0876 11.5686 20.1288 11.3847 20.1288 11.1985C20.1288 11.0124 20.0876 10.8285 20.0081 10.6602Z" fill="#5C5C7E" fill-opacity="0.25"/>
</svg>
