<svg width="503" height="290" viewBox="0 0 503 290" fill="none" xmlns="http://www.w3.org/2000/svg">
<path d="M0 8.05554C0 3.60658 3.6066 0 8.05556 0H494.944C499.393 0 503 3.60659 503 8.05556V281.944C503 286.393 499.393 290 494.944 290H8.05554C3.60658 290 0 286.393 0 281.944V8.05554Z" fill="white"/>
<path d="M0.5 8.05554C0.5 3.88273 3.88274 0.5 8.05556 0.5H494.944C499.117 0.5 502.5 3.88274 502.5 8.05556V281.944C502.5 286.117 499.117 289.5 494.944 289.5H8.05554C3.88272 289.5 0.5 286.117 0.5 281.944V8.05554Z" stroke="#2D5E6F" stroke-opacity="0.25"/>
</svg>
