<svg width="280" height="938" viewBox="0 0 280 938" fill="none" xmlns="http://www.w3.org/2000/svg">
<mask id="mask0_426_154" style="mask-type:luminance" maskUnits="userSpaceOnUse" x="0" y="0" width="280" height="938">
<path d="M276.885 0.841553L0 1.15771V36.7996L0.101964 36.6843L2.51357 925.028C2.53316 932.208 9.81119 938.016 18.7655 938L280 937.607L276.885 0.841553Z" fill="white"/>
</mask>
<g mask="url(#mask0_426_154)">
<path opacity="0.15" d="M351.635 676.944C456.569 676.944 541.635 591.878 541.635 486.944C541.635 382.009 456.569 296.944 351.635 296.944C246.701 296.944 161.635 382.009 161.635 486.944C161.635 591.878 246.701 676.944 351.635 676.944Z" fill="url(#paint0_linear_426_154)"/>
<path d="M-20.9665 135.846C64.4086 135.846 133.619 80.3773 133.619 11.9537C133.619 -56.4699 64.4086 -111.938 -20.9665 -111.938C-106.342 -111.938 -175.552 -56.4699 -175.552 11.9537C-175.552 80.3773 -106.342 135.846 -20.9665 135.846Z" stroke="url(#paint1_linear_426_154)" stroke-opacity="0.3" stroke-width="41.2197" stroke-miterlimit="10"/>
<path d="M72.9703 1020.54L-126.419 868.363L115.819 660.282L315.208 812.463L72.9703 1020.54Z" fill="url(#paint2_linear_426_154)"/>
<path d="M230 122L236.5 128.5L243 122" stroke="white" stroke-width="1.3"/>
<path d="M230 177L236.5 183.5L243 177" stroke="white" stroke-width="1.3"/>
</g>
<defs>
<linearGradient id="paint0_linear_426_154" x1="181.28" y1="325.923" x2="419.626" y2="509.12" gradientUnits="userSpaceOnUse">
<stop stop-color="#05DCC3"/>
<stop offset="0.68067" stop-color="white" stop-opacity="0"/>
</linearGradient>
<linearGradient id="paint1_linear_426_154" x1="-81.4723" y1="-124.222" x2="16.9015" y2="156.074" gradientUnits="userSpaceOnUse">
<stop stop-color="white"/>
<stop offset="1" stop-color="white" stop-opacity="0"/>
</linearGradient>
<linearGradient id="paint2_linear_426_154" x1="91.278" y1="1035.69" x2="97.2653" y2="560.754" gradientUnits="userSpaceOnUse">
<stop stop-color="#00D6B8"/>
<stop offset="1" stop-color="#0289D0" stop-opacity="0"/>
</linearGradient>
</defs>
</svg>
