<svg width="497" height="297" viewBox="0 0 497 297" fill="none" xmlns="http://www.w3.org/2000/svg">
<path fill-rule="evenodd" clip-rule="evenodd" d="M262.93 11.456C288.081 20.0955 311.991 38.5941 330.824 55.8408C370.041 91.7558 375.893 99.3061 424.274 129.459C452.471 147.033 474.702 161.895 485.656 181.773C516.424 237.61 479.776 294.919 402.98 294.919H90.7991C90.7991 294.919 54.0774 295.685 27.2803 265.841C-63.543 164.688 87.0962 -48.946 262.93 11.456Z" fill="#76D0E2"/>
<path d="M384.179 96.9199H377.593V296.665H384.179V96.9199Z" fill="#F48120"/>
<path d="M431.556 96.9199H384.18V296.665H431.556V96.9199Z" fill="#F69B25"/>
<path d="M421.375 169.217H394.358V279.622H421.375V169.217Z" fill="white"/>
<path d="M421.375 150.001H394.358V163.262H421.375V150.001Z" fill="white"/>
<path fill-rule="evenodd" clip-rule="evenodd" d="M407.867 109.475C404.894 109.475 401.988 110.356 399.517 112.008C397.045 113.659 395.119 116.007 393.981 118.753C392.843 121.499 392.546 124.521 393.126 127.437C393.706 130.352 395.137 133.03 397.239 135.132C399.341 137.234 402.019 138.666 404.935 139.246C407.85 139.826 410.872 139.528 413.618 138.39C416.365 137.253 418.712 135.326 420.364 132.855C422.015 130.383 422.897 127.477 422.897 124.505C422.897 122.531 422.508 120.576 421.753 118.753C420.997 116.929 419.89 115.273 418.494 113.877C417.099 112.481 415.442 111.374 413.618 110.619C411.795 109.864 409.84 109.475 407.867 109.475Z" fill="white"/>
<path d="M330.217 96.9199H242.109V296.665H330.217V96.9199Z" fill="#7BA9E3"/>
<path d="M377.593 96.9199H330.217V296.665H377.593V96.9199Z" fill="#B1D2FC"/>
<path d="M367.413 169.217H340.396V279.622H367.413V169.217Z" fill="white"/>
<path d="M367.413 150.001H340.396V163.262H367.413V150.001Z" fill="white"/>
<path fill-rule="evenodd" clip-rule="evenodd" d="M353.905 109.475C350.932 109.475 348.026 110.356 345.555 112.008C343.083 113.659 341.157 116.007 340.019 118.753C338.882 121.499 338.584 124.521 339.164 127.437C339.744 130.352 341.175 133.03 343.277 135.132C345.379 137.234 348.057 138.666 350.973 139.246C353.888 139.826 356.91 139.528 359.656 138.39C362.403 137.253 364.75 135.326 366.402 132.855C368.053 130.383 368.935 127.477 368.935 124.505C368.935 122.531 368.546 120.576 367.791 118.753C367.035 116.929 365.928 115.273 364.533 113.877C363.137 112.481 361.48 111.374 359.657 110.619C357.833 109.864 355.879 109.475 353.905 109.475Z" fill="white"/>
<path fill-rule="evenodd" clip-rule="evenodd" d="M353.905 111.65C351.362 111.65 348.877 112.404 346.763 113.817C344.65 115.229 343.002 117.237 342.029 119.585C341.056 121.934 340.802 124.519 341.298 127.012C341.794 129.505 343.018 131.796 344.816 133.593C346.613 135.391 348.904 136.615 351.397 137.111C353.89 137.607 356.475 137.353 358.824 136.38C361.172 135.407 363.18 133.759 364.592 131.645C366.005 129.532 366.758 127.046 366.758 124.504C366.759 122.816 366.426 121.145 365.78 119.585C365.134 118.026 364.187 116.609 362.994 115.415C361.8 114.221 360.383 113.275 358.824 112.629C357.264 111.983 355.593 111.65 353.905 111.65Z" fill="#1B41A0"/>
<path fill-rule="evenodd" clip-rule="evenodd" d="M407.868 111.713C405.338 111.713 402.865 112.463 400.761 113.868C398.658 115.274 397.018 117.272 396.05 119.609C395.082 121.946 394.828 124.518 395.322 126.999C395.816 129.481 397.034 131.76 398.823 133.549C400.612 135.338 402.891 136.556 405.372 137.05C407.853 137.543 410.425 137.29 412.763 136.322C415.1 135.354 417.098 133.714 418.503 131.611C419.909 129.507 420.659 127.034 420.659 124.504C420.659 122.824 420.328 121.161 419.685 119.609C419.043 118.057 418.1 116.647 416.913 115.459C415.725 114.271 414.315 113.329 412.763 112.686C411.211 112.043 409.547 111.713 407.868 111.713Z" fill="#BF4C26"/>
<path fill-rule="evenodd" clip-rule="evenodd" d="M281.67 197.431H257.712L255.634 199.447V252.51H279.592L281.67 250.493V197.431Z" fill="#CD6A2C"/>
<path d="M281.669 197.431H257.711V250.493H281.669V197.431Z" fill="white"/>
<path d="M278.678 200.423H260.703V247.502H278.678V200.423Z" fill="#105DC4"/>
<path fill-rule="evenodd" clip-rule="evenodd" d="M278.678 223.775L260.703 205.13V209.176L278.678 227.821V223.775Z" fill="#C8EDFD"/>
<path fill-rule="evenodd" clip-rule="evenodd" d="M278.678 231.266L260.703 212.621V220.057L278.678 238.702V231.266Z" fill="#C8EDFD"/>
<path fill-rule="evenodd" clip-rule="evenodd" d="M97.3928 39.4663H276.382C278.26 39.4718 280.059 40.2201 281.387 41.5478C282.715 42.8755 283.463 44.6748 283.468 46.5525V289.579C283.463 291.457 282.715 293.256 281.387 294.584C280.059 295.912 278.26 296.66 276.382 296.665H97.3928C95.5151 296.66 93.7159 295.912 92.3882 294.584C91.0605 293.256 90.3121 291.457 90.3066 289.579V46.5525C90.3121 44.6748 91.0604 42.8755 92.3881 41.5478C93.7159 40.2201 95.5151 39.4718 97.3928 39.4663Z" fill="#B2D2FF"/>
<path d="M275.905 46.1372H98.3945V288.681H275.905V46.1372Z" fill="white"/>
<path fill-rule="evenodd" clip-rule="evenodd" d="M118.768 116.427H200.553C201.108 116.427 201.641 116.647 202.033 117.04C202.426 117.432 202.646 117.964 202.646 118.52C202.646 119.075 202.426 119.607 202.033 119.999C201.641 120.392 201.108 120.612 200.553 120.612H118.768C118.213 120.612 117.68 120.392 117.288 119.999C116.895 119.607 116.675 119.075 116.675 118.52C116.675 117.964 116.895 117.432 117.288 117.04C117.68 116.647 118.213 116.427 118.768 116.427Z" fill="#7BA9E3"/>
<path d="M185.706 10.9838C186.722 10.9838 187.715 11.2851 188.56 11.8495C189.405 12.414 190.063 13.2164 190.452 14.1551C190.841 15.0939 190.943 16.1268 190.745 17.1234C190.546 18.12 190.057 19.0354 189.339 19.7539C188.62 20.4723 187.705 20.9616 186.708 21.1599C185.712 21.3581 184.679 21.2564 183.74 20.8675C182.801 20.4787 181.999 19.8202 181.434 18.9753C180.87 18.1305 180.568 17.1372 180.568 16.1211C180.569 14.7587 181.11 13.452 182.073 12.4886C183.037 11.5252 184.343 10.9839 185.706 10.9838ZM131.535 49.3507H239.877V45.0672C239.877 36.7452 231.87 32.2167 222.86 32.2167H210.812V30.2321C210.806 28.3647 210.062 26.5753 208.742 25.2549C207.421 23.9344 205.632 23.1902 203.765 23.1848H198.648L198.649 23.1263V18.7232C198.649 17.0236 198.314 15.3405 197.663 13.7703C197.013 12.2 196.06 10.7732 194.858 9.57135C193.656 8.36951 192.229 7.41616 190.659 6.76573C189.088 6.1153 187.406 5.78052 185.706 5.78052C184.006 5.78052 182.323 6.1153 180.753 6.76573C179.183 7.41616 177.756 8.36951 176.554 9.57135C175.352 10.7732 174.399 12.2 173.748 13.7703C173.098 15.3405 172.763 17.0236 172.763 18.7232V23.1263L172.764 23.1848H167.647C165.78 23.1902 163.99 23.9344 162.67 25.2549C161.349 26.5753 160.605 28.3647 160.6 30.2321V32.2167H148.429C135.503 32.2167 131.535 38.9482 131.535 45.0672V49.3507Z" fill="#7BA9E3"/>
<path fill-rule="evenodd" clip-rule="evenodd" d="M118.768 127.44H201.495C202.05 127.44 202.582 127.661 202.975 128.053C203.367 128.446 203.587 128.978 203.587 129.533C203.587 130.088 203.367 130.62 202.975 131.013C202.582 131.405 202.05 131.626 201.495 131.626H118.768C118.213 131.626 117.68 131.405 117.288 131.013C116.895 130.62 116.675 130.088 116.675 129.533C116.675 128.978 116.895 128.446 117.288 128.053C117.68 127.661 118.213 127.44 118.768 127.44Z" fill="#7BA9E3"/>
<path fill-rule="evenodd" clip-rule="evenodd" d="M118.768 138.454H201.495C202.05 138.454 202.582 138.675 202.974 139.067C203.367 139.46 203.587 139.992 203.587 140.547C203.587 141.102 203.367 141.635 202.974 142.027C202.582 142.419 202.05 142.64 201.495 142.64H118.768C118.213 142.64 117.68 142.419 117.288 142.027C116.895 141.635 116.675 141.102 116.675 140.547C116.675 139.992 116.895 139.46 117.288 139.067C117.68 138.675 118.213 138.454 118.768 138.454Z" fill="#7BA9E3"/>
<path fill-rule="evenodd" clip-rule="evenodd" d="M118.768 177.354H258.865C259.42 177.354 259.952 177.574 260.345 177.967C260.737 178.359 260.958 178.892 260.958 179.447C260.958 180.002 260.737 180.534 260.345 180.927C259.952 181.319 259.42 181.54 258.865 181.54H118.768C118.213 181.54 117.68 181.319 117.288 180.927C116.895 180.534 116.675 180.002 116.675 179.447C116.675 178.892 116.895 178.359 117.288 177.967C117.68 177.574 118.213 177.354 118.768 177.354Z" fill="#7BA9E3"/>
<path fill-rule="evenodd" clip-rule="evenodd" d="M118.768 188.368H258.865C259.42 188.368 259.952 188.588 260.345 188.981C260.737 189.373 260.958 189.906 260.958 190.461C260.958 191.016 260.737 191.548 260.345 191.941C259.952 192.333 259.42 192.553 258.865 192.553H118.768C118.213 192.553 117.68 192.333 117.288 191.941C116.895 191.548 116.675 191.016 116.675 190.461C116.675 189.906 116.895 189.373 117.288 188.981C117.68 188.588 118.213 188.368 118.768 188.368Z" fill="#7BA9E3"/>
<path fill-rule="evenodd" clip-rule="evenodd" d="M118.768 253.086H142.079C142.634 253.086 143.166 253.307 143.559 253.699C143.951 254.092 144.172 254.624 144.172 255.179C144.172 255.734 143.951 256.267 143.559 256.659C143.166 257.051 142.634 257.272 142.079 257.272H118.768C118.213 257.272 117.68 257.051 117.288 256.659C116.895 256.267 116.675 255.734 116.675 255.179C116.675 254.624 116.895 254.092 117.288 253.699C117.68 253.307 118.213 253.086 118.768 253.086Z" fill="#7BA9E3"/>
<path fill-rule="evenodd" clip-rule="evenodd" d="M118.768 264.1H181.971C182.526 264.1 183.058 264.321 183.45 264.713C183.843 265.106 184.063 265.638 184.063 266.193C184.063 266.748 183.843 267.28 183.45 267.673C183.058 268.065 182.526 268.286 181.971 268.286H118.768C118.213 268.286 117.68 268.065 117.288 267.673C116.895 267.28 116.675 266.748 116.675 266.193C116.675 265.638 116.895 265.106 117.288 264.713C117.68 264.321 118.213 264.1 118.768 264.1Z" fill="#7BA9E3"/>
<path fill-rule="evenodd" clip-rule="evenodd" d="M118.768 205.107H153.263C153.818 205.107 154.351 205.328 154.743 205.72C155.136 206.113 155.356 206.645 155.356 207.2C155.356 207.755 155.136 208.288 154.743 208.68C154.351 209.072 153.818 209.293 153.263 209.293H118.768C118.213 209.293 117.68 209.072 117.288 208.68C116.895 208.288 116.675 207.755 116.675 207.2C116.675 206.645 116.895 206.113 117.288 205.72C117.68 205.328 118.213 205.107 118.768 205.107Z" fill="#7BA9E3"/>
<path fill-rule="evenodd" clip-rule="evenodd" d="M118.768 216.122H223.363C223.918 216.122 224.451 216.343 224.843 216.735C225.236 217.128 225.456 217.66 225.456 218.215C225.456 218.77 225.236 219.302 224.843 219.695C224.451 220.087 223.918 220.308 223.363 220.308H118.768C118.213 220.308 117.68 220.087 117.288 219.695C116.895 219.302 116.675 218.77 116.675 218.215C116.675 217.66 116.895 217.128 117.288 216.735C117.68 216.343 118.213 216.122 118.768 216.122Z" fill="#7BA9E3"/>
<path fill-rule="evenodd" clip-rule="evenodd" d="M118.768 227.136H223.363C223.918 227.136 224.451 227.356 224.843 227.749C225.236 228.141 225.456 228.674 225.456 229.229C225.456 229.784 225.236 230.316 224.843 230.709C224.451 231.101 223.918 231.322 223.363 231.322H118.768C118.213 231.322 117.68 231.101 117.288 230.709C116.895 230.316 116.675 229.784 116.675 229.229C116.675 228.674 116.895 228.141 117.288 227.749C117.68 227.356 118.213 227.136 118.768 227.136Z" fill="#7BA9E3"/>
<path fill-rule="evenodd" clip-rule="evenodd" d="M118.768 153.329H258.866C259.42 153.331 259.95 153.552 260.341 153.945C260.732 154.337 260.952 154.868 260.952 155.422C260.952 155.976 260.732 156.507 260.341 156.9C259.95 157.292 259.42 157.513 258.866 157.515H118.768C118.214 157.513 117.683 157.292 117.292 156.9C116.901 156.507 116.682 155.976 116.682 155.422C116.682 154.868 116.901 154.337 117.292 153.945C117.683 153.552 118.214 153.331 118.768 153.329Z" fill="#7BA9E3"/>
<path fill-rule="evenodd" clip-rule="evenodd" d="M118.768 164.344H258.865C259.42 164.344 259.952 164.564 260.345 164.957C260.737 165.349 260.958 165.882 260.958 166.437C260.958 166.992 260.737 167.524 260.345 167.917C259.952 168.309 259.42 168.53 258.865 168.53H118.768C118.213 168.53 117.68 168.309 117.288 167.917C116.895 167.524 116.675 166.992 116.675 166.437C116.675 165.882 116.895 165.349 117.288 164.957C117.68 164.564 118.213 164.344 118.768 164.344Z" fill="#7BA9E3"/>
<path d="M257.711 89.5776H213.681V142.64H257.711V89.5776Z" fill="#C3DCFA"/>
<path d="M238.778 64.9727H136.016V75.9867H238.778V64.9727Z" fill="#C3DCFA"/>
<path fill-rule="evenodd" clip-rule="evenodd" d="M118.768 99.6204H168.972C169.527 99.6204 170.06 99.8409 170.452 100.233C170.845 100.626 171.065 101.158 171.065 101.713C171.065 102.268 170.845 102.8 170.452 103.193C170.06 103.585 169.527 103.806 168.972 103.806H118.768C118.493 103.806 118.221 103.752 117.967 103.647C117.713 103.541 117.482 103.387 117.288 103.193C117.093 102.999 116.939 102.768 116.834 102.514C116.729 102.26 116.675 101.988 116.675 101.713C116.675 101.438 116.729 101.166 116.834 100.912C116.939 100.658 117.093 100.428 117.288 100.233C117.482 100.039 117.713 99.8848 117.967 99.7797C118.221 99.6745 118.493 99.6204 118.768 99.6204Z" fill="#7BA9E3"/>
<path fill-rule="evenodd" clip-rule="evenodd" d="M110.142 127.119C107.806 127.785 105.387 128.114 102.958 128.095L104.073 68.5538C106.334 66.9724 108.762 65.6449 111.313 64.5953L110.142 127.119ZM120.274 122.339C118.836 123.31 117.333 124.182 115.777 124.951L116.904 62.9139C117.728 62.7545 118.547 62.6364 119.361 62.5596L121.36 62.597L120.274 122.339Z" fill="white"/>
<path fill-rule="evenodd" clip-rule="evenodd" d="M281.918 254.767C282.951 252.753 284.74 251.229 286.894 250.529C289.047 249.83 291.39 250.011 293.41 251.033L351.32 280.536C353.338 281.565 354.865 283.354 355.565 285.509C356.265 287.664 356.08 290.008 355.052 292.027C354.023 294.046 352.235 295.573 350.081 296.274C347.926 296.975 345.581 296.791 343.562 295.763L285.652 266.26C283.638 265.226 282.114 263.437 281.415 261.284C280.715 259.13 280.896 256.788 281.918 254.767Z" fill="#105DC4"/>
<path fill-rule="evenodd" clip-rule="evenodd" d="M350.567 283.902L293.986 254.753C293.771 254.64 293.536 254.571 293.294 254.55C293.053 254.528 292.81 254.554 292.578 254.627C292.347 254.699 292.132 254.817 291.946 254.973C291.76 255.128 291.607 255.319 291.495 255.534L291.495 255.535C291.272 255.97 291.229 256.474 291.376 256.94C291.522 257.406 291.846 257.796 292.277 258.025L348.858 287.175C349.073 287.287 349.308 287.356 349.549 287.378C349.791 287.399 350.034 287.373 350.265 287.3C350.497 287.228 350.711 287.11 350.897 286.954C351.083 286.799 351.236 286.608 351.348 286.393L351.349 286.392C351.571 285.958 351.614 285.453 351.468 284.987C351.322 284.521 350.998 284.131 350.567 283.902Z" fill="#3D7DDA"/>
<path fill-rule="evenodd" clip-rule="evenodd" d="M212.467 278.708H203.726C194.526 278.708 187.067 263.686 187.067 245.154C187.067 226.622 194.526 211.6 203.726 211.6H212.467C221.667 211.6 229.125 226.622 229.125 245.154C229.125 263.686 221.667 278.708 212.467 278.708Z" fill="#3D7DDA"/>
<path fill-rule="evenodd" clip-rule="evenodd" d="M219.12 269.95C213.719 269.95 209.339 258.84 209.339 245.134C209.339 231.427 213.719 220.317 219.12 220.317H263.279V269.95H219.12Z" fill="#639AEF"/>
<path fill-rule="evenodd" clip-rule="evenodd" d="M219.119 269.949C214.856 269.949 211.23 263.029 209.891 253.375H263.278V269.949H219.119Z" fill="#4F8BE7"/>
<path fill-rule="evenodd" clip-rule="evenodd" d="M219.119 269.95C216.22 269.95 213.615 266.748 211.824 261.662H263.278V269.95H219.119Z" fill="#4884DF"/>
<path fill-rule="evenodd" clip-rule="evenodd" d="M282.186 278.708H273.446C264.245 278.708 256.787 263.686 256.787 245.154C256.787 226.622 264.245 211.6 273.446 211.6H282.186C291.387 211.6 298.845 226.622 298.845 245.154C298.845 263.686 291.387 278.708 282.186 278.708Z" fill="#3D7DDA"/>
<path fill-rule="evenodd" clip-rule="evenodd" d="M289.064 220.317C294.466 220.317 298.845 231.428 298.845 245.134C298.845 258.84 294.466 269.95 289.064 269.95C283.661 269.95 279.282 258.84 279.282 245.134C279.282 231.428 283.661 220.317 289.064 220.317Z" fill="#105DC4"/>
<path fill-rule="evenodd" clip-rule="evenodd" d="M180.773 296.661H301.755V287.685C301.748 285.306 300.801 283.027 299.119 281.345C297.437 279.663 295.158 278.715 292.779 278.708H189.75C187.371 278.715 185.092 279.663 183.41 281.345C181.728 283.027 180.78 285.306 180.773 287.685V296.661Z" fill="#3D7DDA"/>
<path fill-rule="evenodd" clip-rule="evenodd" d="M180.773 296.661H286.66V287.685C286.653 285.306 285.705 283.027 284.023 281.345C282.341 279.663 280.061 278.715 277.683 278.708H189.75C187.372 278.715 185.092 279.663 183.41 281.345C181.728 283.027 180.78 285.306 180.773 287.685V296.661Z" fill="#4F8BE7"/>
</svg>
