<svg width="58" height="36" viewBox="0 0 58 36" fill="none" xmlns="http://www.w3.org/2000/svg">
<g clip-path="url(#clip0_426_121)">
<path d="M7.48748 25.6845H32.5127C33.6856 23.6043 34.3557 21.2027 34.3557 18.6444C34.3557 10.716 27.9285 4.28882 20.0001 4.28882C12.0717 4.28882 5.64453 10.716 5.64453 18.6444C5.64447 21.2028 6.31449 23.6043 7.48748 25.6845Z" fill="#048F46"/>
<path d="M18.7571 23.2041C18.7571 23.2041 19.6271 23.5858 19.9999 24.1333C20.3726 23.5858 21.2426 23.2041 21.2426 23.2041L24.746 21.4223C24.4495 21.3307 24.1499 21.2498 23.8476 21.18C23.2528 20.5851 23.1019 19.4574 23.0748 18.6683C22.7644 19.0299 22.4386 19.3324 22.1273 19.5741C21.5207 20.0451 20.7722 20.3009 20.0014 20.3009C19.2305 20.3009 18.4821 20.0451 17.8755 19.5741C17.5642 19.3323 17.2385 19.0299 16.928 18.6683C16.9008 19.4574 16.75 20.5851 16.1552 21.18C15.8522 21.25 15.5519 21.331 15.2549 21.4229L18.7571 23.2041Z" fill="#FFAA7B"/>
<path d="M19.8558 20.2979C19.1367 20.2678 18.4438 20.0154 17.8755 19.5741C17.5642 19.3324 17.2384 19.0299 16.928 18.6683C16.9044 19.3546 16.7868 20.2969 16.3652 20.9221C16.9648 22.1323 17.7417 23.1449 18.5275 22.6153C19.4964 21.9621 19.7838 20.9913 19.8558 20.2979Z" fill="#FC9460"/>
<path d="M18.8807 23.0184L17.3263 22.2278C16.6649 22.4289 15.7617 22.9541 15.7298 24.325C15.2832 24.4023 13.0342 24.897 13.0342 26.9983V31.1984C15.0971 32.3458 17.4721 33 20.0002 33C20.0504 33 20.1002 32.9985 20.1502 32.9981V24.2879C20.1502 23.575 18.8807 23.0184 18.8807 23.0184Z" fill="#7E6DD1"/>
<path d="M13.1223 31.2466V26.9982C13.1223 24.7281 15.8171 24.4003 15.8171 24.4003C15.8171 22.9591 16.7849 22.4581 17.4369 22.2839L15.5635 21.3311C11.5524 22.639 9.6366 23.1621 8.6377 23.8751C9.67762 24.5849 11.3131 26.0592 11.3131 28.3149V30.073C11.8859 30.509 12.4907 30.9012 13.1223 31.2466Z" fill="#7255CE"/>
<path d="M24.4376 21.3311L21.1201 23.0184C21.1201 23.0184 19.8506 23.575 19.8506 24.2879V32.9981C19.9006 32.9986 19.9504 32.9999 20.0006 32.9999C20.6739 32.9999 21.3363 32.9528 21.985 32.8631L21.9846 32.8628L26.0734 31.6548V31.6549C26.9987 31.2222 27.8752 30.6918 28.688 30.0729V28.3149C28.688 26.0592 30.3235 24.5849 31.3634 23.8751C30.3645 23.1621 28.4488 22.639 24.4376 21.3311Z" fill="#9589E8"/>
<path d="M23.4112 19.8238C23.3955 19.8151 23.378 19.8103 23.3602 19.8096C23.3423 19.809 23.3245 19.8126 23.3083 19.8201C23.292 19.8276 23.2778 19.8389 23.2667 19.8529C23.2557 19.8669 23.248 19.8834 23.2445 19.9009C23.1443 20.3919 22.7093 21.9388 21.0939 22.8568C20.9348 22.9472 20.8967 23.1594 21.017 23.2973L22.6493 25.1669C22.9882 25.5572 23.6122 25.487 23.8568 25.0316C24.2704 24.2616 24.8465 23.0898 25.273 21.8299C25.3493 21.6043 25.2951 21.3549 25.1341 21.1793C24.637 20.6371 24.0551 20.1792 23.4112 19.8238Z" fill="#B5B0F7"/>
<path d="M18.907 22.8568C18.5183 22.6359 18.1986 22.3785 17.9348 22.1083C17.5418 22.1416 15.8322 22.3938 15.7344 24.2343C15.8661 24.5025 16.0027 24.7683 16.1441 25.0316C16.3887 25.487 17.0127 25.5573 17.3516 25.1669L18.9838 23.2974C19.1042 23.1594 19.066 22.9472 18.907 22.8568Z" fill="#9589E8"/>
<path d="M16.7569 19.9009C16.7533 19.8834 16.7457 19.8669 16.7347 19.8529C16.7236 19.8389 16.7093 19.8276 16.6931 19.8201C16.6769 19.8126 16.6591 19.809 16.6412 19.8096C16.6234 19.8103 16.6059 19.8151 16.5902 19.8238C15.9462 20.1792 15.3643 20.6371 14.8673 21.1793C14.7064 21.3549 14.6521 21.6043 14.7284 21.8299C15.0508 22.7823 15.4586 23.6841 15.8172 24.4003C15.8172 22.2276 18.0176 22.1909 18.0176 22.1909L18.0176 22.1908C17.12 21.3197 16.8355 20.2859 16.7569 19.9009Z" fill="#7E6DD1"/>
<path d="M28.5703 30.1618C30.182 28.9603 31.5249 27.4353 32.5127 25.6845C32.4022 25.3558 32.2825 25.0541 32.1526 24.7892C31.9655 24.4075 31.7057 24.1082 31.3051 23.8347C30.2694 24.5282 28.5703 26.0161 28.5703 28.3149V30.1618Z" fill="#B5B0F7"/>
<path d="M8.69486 23.8347C8.29426 24.1083 8.03445 24.4075 7.84736 24.7892C7.71752 25.0541 7.59787 25.3558 7.4873 25.6845C8.47509 27.4353 9.81792 28.9604 11.4297 30.1618V28.3149C11.4297 26.0161 9.73063 24.5282 8.69486 23.8347Z" fill="#7E6DD1"/>
<path d="M25.3701 27.646H22.6455C22.2588 27.646 21.9424 27.9624 21.9424 28.3491V32.6265C21.9424 32.7094 21.9577 32.7888 21.9845 32.8629C23.4002 32.6675 24.7786 32.2603 26.0732 31.6549V28.3491C26.0732 27.9624 25.7568 27.646 25.3701 27.646Z" fill="#B5B0F7"/>
<path d="M29.8139 8.16833C28.451 9.1758 26.7552 10.8742 27.4741 13.0021C28.5874 16.2977 23.5483 18.376 29.1733 20.7645C31.4224 21.7196 32.7292 22.7161 33.4885 23.5683C34.0493 22.0325 34.3558 20.3744 34.3558 18.6444C34.3558 14.5118 32.6088 10.7876 29.8139 8.16833ZM10.1865 8.16833C11.5494 9.1758 13.2451 10.8742 12.5263 13.0021C11.413 16.2977 16.452 18.376 10.827 20.7645C8.57797 21.7196 7.27109 22.7161 6.51189 23.5683C5.95104 22.0325 5.64453 20.3744 5.64453 18.6444C5.64459 14.5118 7.39156 10.7876 10.1865 8.16833Z" fill="#00A64E"/>
<path d="M14.6611 12.2271H25.3996C25.4187 11.4534 25.5477 9.4054 26.3563 7.94654C26.412 7.84635 26.4456 7.73544 26.455 7.62122C26.4643 7.507 26.4492 7.3921 26.4106 7.28419C26.1172 6.46611 25.2407 4.55361 23.3293 4.04349C23.2274 4.0163 23.2005 3.88458 23.2834 3.81949L23.5699 3.59443C23.6997 3.49236 23.6498 3.28505 23.4876 3.25382C22.0774 2.98183 17.3937 2.33097 15.9388 5.32259C15.8519 5.50113 15.6883 5.62968 15.4961 5.67943C15.0728 5.789 14.3113 6.11923 13.815 7.10882C13.7668 7.20458 13.7381 7.30897 13.7305 7.41592C13.723 7.52287 13.7367 7.63025 13.771 7.73185C14.0122 8.44265 14.5998 10.3513 14.6611 12.2271Z" fill="#56415E"/>
<path d="M19.4661 7.4984C17.7509 4.88459 20.751 3.0011 20.751 3.0011C18.9316 3.02465 16.8298 3.49059 15.9388 5.32264C15.8519 5.50118 15.6883 5.62973 15.4961 5.67948C15.0728 5.78905 14.3113 6.11928 13.815 7.10887C13.7668 7.20463 13.7381 7.30902 13.7305 7.41597C13.723 7.52292 13.7367 7.63031 13.771 7.7319C14.0122 8.4427 14.5998 10.3513 14.6611 12.2272H17.1607C18.7427 10.9456 20.4852 9.05161 19.4661 7.4984Z" fill="#45304C"/>
<path d="M25.8164 11.9141C25.576 11.6938 25.0385 11.8055 24.8314 11.9404C24.8768 12.2229 24.8794 12.5119 24.8402 12.7972L24.5958 14.5768C24.5958 14.7203 24.5913 14.861 24.583 14.9993C25.1788 15.179 25.5334 14.6441 25.5833 14.277C25.6047 14.119 25.6399 13.9631 25.6885 13.8112C25.847 13.3164 26.4187 12.4662 25.8164 11.9141Z" fill="#FFAA7B"/>
<path d="M14.1848 11.9141C14.4252 11.6938 14.9627 11.8055 15.1698 11.9404C15.1246 12.224 15.1217 12.5127 15.1611 12.7972L15.4054 14.5768C15.4054 14.7203 15.4099 14.861 15.4182 14.9993C14.8224 15.179 14.4678 14.6441 14.418 14.277C14.3966 14.119 14.3614 13.9631 14.3127 13.8112C14.1542 13.3164 13.5825 12.4662 14.1848 11.9141Z" fill="#FC9460"/>
<path d="M24.7429 11.3906C24.6879 11.2472 24.6186 11.1018 24.5312 10.9648C24.3833 10.7326 24.3182 10.4581 24.338 10.1843C24.395 9.39694 24.3645 7.85692 23.3308 7.3918C22.4527 6.99665 21.3754 7.22545 20.6885 7.45385C20.2587 7.5965 19.7953 7.60188 19.3624 7.46926C18.5797 8.06997 18.5613 9.42249 18.6142 10.1427C18.6349 10.4183 18.5661 10.6933 18.4179 10.9267C18.3322 11.0612 18.2636 11.2036 18.2087 11.3445C18.0308 11.8017 17.9789 12.2975 18.0455 12.783L18.2932 14.5866C18.2932 17.1795 19.6773 18.9419 20.8546 19.8562C21.0284 19.9911 21.2143 20.1072 21.4084 20.2063C21.6642 20.093 21.9053 19.9491 22.1264 19.7776C23.2883 18.8753 24.6543 17.1359 24.6543 14.5769L24.8987 12.7973C24.9639 12.3228 24.9145 11.8383 24.7429 11.3906Z" fill="#FFC7AB"/>
<path d="M20.8625 19.7775C19.7005 18.8752 18.3345 17.1358 18.3345 14.5768L18.0901 12.7968C18.0243 12.3177 18.0755 11.8283 18.2511 11.3771C18.3052 11.238 18.3729 11.0975 18.4576 10.9647C18.6038 10.7344 18.6718 10.463 18.6514 10.1909C18.5975 9.45758 18.6184 8.05994 19.4655 7.49826C19.4138 7.48532 19.3627 7.47046 19.3121 7.45373C18.6251 7.22533 17.5479 6.99652 16.6698 7.39168C15.6331 7.85809 15.6054 9.40561 15.6631 10.1909C15.6835 10.463 15.6156 10.7344 15.4693 10.9647C15.3847 11.0975 15.317 11.238 15.2628 11.3771C15.0872 11.8283 15.036 12.3177 15.1018 12.7968L15.3462 14.5768C15.3462 17.1358 16.7123 18.8752 17.8742 19.7775C18.4807 20.2485 19.2292 20.5043 20 20.5043C20.517 20.5043 21.0275 20.3888 21.4942 20.1664C21.2702 20.0599 21.0584 19.9295 20.8625 19.7775Z" fill="#FFAA7B"/>
</g>
<path d="M41 16L46 21L51 16" stroke="#696969"/>
<defs>
<clipPath id="clip0_426_121">
<rect width="30" height="30" fill="white" transform="translate(5 3)"/>
</clipPath>
</defs>
</svg>
