<svg width="41" height="40" viewBox="0 0 41 40" fill="none" xmlns="http://www.w3.org/2000/svg">
<path d="M2.25195 5.66974C2.25195 4.56517 3.14738 3.66974 4.25195 3.66974H20.5525C21.6571 3.66974 22.5525 4.56517 22.5525 5.66974V26.9313C22.5525 28.0359 21.6571 28.9313 20.5525 28.9313H4.25196C3.14739 28.9313 2.25195 28.0359 2.25195 26.9313V5.66974Z" fill="#C1F3EE"/>
<rect x="0.6" y="2.01742" width="23.6052" height="28.5663" rx="4.4" stroke="#019FC9" stroke-width="1.2"/>
<rect x="8.7959" y="1" width="7.21336" height="2.25232" rx="1.12616" fill="white" stroke="#019FC9" stroke-width="2"/>
<path d="M5.71094 8.46338H18.0941" stroke="#019FC9" stroke-width="1.5" stroke-linecap="round"/>
<path d="M5.71094 13.4244H13.9679" stroke="#019FC9" stroke-width="1.5" stroke-linecap="round"/>
<path d="M5.71094 18.3854H9.13302" stroke="#019FC9" stroke-width="1.5" stroke-linecap="round"/>
<path d="M5.71094 23.3465H7.29814" stroke="#019FC9" stroke-width="1.5" stroke-linecap="round"/>
<path fill-rule="evenodd" clip-rule="evenodd" d="M16.5789 21.3591L12.7775 17.5577L12.2029 16.961C12.1366 16.8947 12.0482 16.8726 11.9377 16.8726C11.6725 16.8726 11.0537 17.6019 10.7 17.9556C10.5674 18.0882 10.5674 18.3092 10.7 18.4639L15.6727 23.4145C16.0484 23.7902 16.5789 23.0387 17.1535 22.442C17.3082 22.3094 17.3082 22.0663 17.1535 21.9337L16.5789 21.3591Z" fill="#FF9900"/>
<path fill-rule="evenodd" clip-rule="evenodd" d="M13.7275 17.2484L16.888 20.4088L17.8825 19.4142C17.9046 19.4142 17.9046 19.4142 17.9046 19.3921L20.4241 16.8727L21.3744 15.9223L18.1919 12.7619L13.7275 17.2484Z" fill="#FF9900"/>
<path fill-rule="evenodd" clip-rule="evenodd" d="M18.5233 11.8116L22.3026 15.6129C22.3247 15.6129 22.3247 15.6129 22.3247 15.635L22.8993 16.2096C23.275 16.5853 23.8054 15.8118 24.38 15.2151C24.5347 15.0825 24.5347 14.8615 24.38 14.7068L19.4295 9.75619C19.3632 9.66779 19.2526 9.64569 19.1642 9.64569C18.899 9.64569 18.2802 10.375 17.9266 10.7286C17.794 10.8612 17.794 11.1043 17.9266 11.2369L18.5012 11.8116L18.5233 11.8116ZM20.7334 17.823L18.8327 19.7237L20.0704 20.9392L21.971 19.0385L20.7334 17.823Z" fill="#FF9900"/>
<path fill-rule="evenodd" clip-rule="evenodd" d="M22.5901 19.6794L20.6895 21.558L26.5241 27.4147C26.5683 27.4368 26.5904 27.4589 26.6125 27.481L27.3197 28.2104L29.2204 26.3097L25.9715 23.0609L25.8831 22.9725L22.5901 19.6794Z" fill="#FF9900"/>
<path fill-rule="evenodd" clip-rule="evenodd" d="M29.8616 26.9285L27.9609 28.8291L28.4472 29.3375C28.845 29.7132 29.5301 29.7132 29.9058 29.3375C30.3036 28.9175 31.1214 28.2103 30.3478 27.4368L29.8616 26.9285Z" fill="#FF9900"/>
</svg>
