<svg width="18" height="18" viewBox="0 0 18 18" fill="none" xmlns="http://www.w3.org/2000/svg">
<path d="M1.39906 8.56033H7.06286C7.18686 8.56044 7.30966 8.53612 7.42423 8.48872C7.53881 8.44132 7.64293 8.37176 7.73061 8.28408C7.81828 8.19641 7.88781 8.09233 7.93521 7.97775C7.98261 7.86317 8.00694 7.74035 8.00683 7.61635V1.95253C8.00694 1.82854 7.98261 1.70577 7.93521 1.59119C7.88781 1.47661 7.81828 1.37248 7.73061 1.2848C7.64293 1.19713 7.53881 1.12761 7.42423 1.08021C7.30966 1.03281 7.18686 1.00844 7.06286 1.00856H1.39906C1.27506 1.00844 1.15225 1.03282 1.03767 1.08021C0.923095 1.12761 0.818992 1.19713 0.731314 1.2848C0.643636 1.37248 0.57411 1.47661 0.526712 1.59119C0.479313 1.70577 0.454965 1.82854 0.455079 1.95253V7.61635C0.454964 7.74035 0.479302 7.86317 0.5267 7.97775C0.574098 8.09233 0.643636 8.1964 0.731314 8.28408C0.818993 8.37176 0.923095 8.44132 1.03767 8.48872C1.15225 8.53612 1.27506 8.56044 1.39906 8.56033ZM1.39906 18H7.06286C7.18686 18.0001 7.30966 17.9758 7.42423 17.9284C7.53881 17.881 7.64293 17.8114 7.73061 17.7238C7.81828 17.6361 7.88781 17.532 7.93521 17.4174C7.98261 17.3029 8.00694 17.18 8.00683 17.056V11.3922C8.00694 11.2682 7.98261 11.1454 7.93521 11.0309C7.88781 10.9163 7.81828 10.8122 7.73061 10.7245C7.64293 10.6368 7.53881 10.5673 7.42423 10.5199C7.30966 10.4725 7.18686 10.4481 7.06286 10.4482H1.39906C1.27506 10.4481 1.15225 10.4725 1.03767 10.5199C0.923095 10.5673 0.818992 10.6368 0.731314 10.7245C0.643636 10.8122 0.57411 10.9163 0.526712 11.0309C0.479313 11.1454 0.454965 11.2682 0.455079 11.3922V17.056C0.454967 17.18 0.479312 17.3029 0.526712 17.4174C0.574111 17.532 0.643636 17.6361 0.731314 17.7238C0.818992 17.8114 0.923096 17.881 1.03767 17.9284C1.15225 17.9758 1.27506 18.0001 1.39906 18ZM10.8387 18H16.5025C16.6265 18.0001 16.7493 17.9758 16.8639 17.9284C16.9785 17.881 17.0826 17.8114 17.1703 17.7238C17.258 17.6361 17.3275 17.532 17.3749 17.4174C17.4223 17.3029 17.4466 17.18 17.4465 17.056V11.3922C17.4466 11.2682 17.4223 11.1454 17.3749 11.0309C17.3275 10.9163 17.258 10.8122 17.1703 10.7245C17.0826 10.6368 16.9785 10.5673 16.8639 10.5199C16.7493 10.4725 16.6265 10.4481 16.5025 10.4482H10.8387C10.7147 10.4481 10.5919 10.4725 10.4774 10.5199C10.3628 10.5673 10.2587 10.6368 10.171 10.7245C10.0833 10.8122 10.0138 10.9163 9.96639 11.0309C9.919 11.1454 9.89465 11.2682 9.89476 11.3922V17.056C9.89465 17.18 9.919 17.3029 9.96639 17.4174C10.0138 17.532 10.0833 17.6361 10.171 17.7238C10.2587 17.8114 10.3628 17.881 10.4774 17.9284C10.5919 17.9758 10.7147 18.0001 10.8387 18ZM17.7231 4.11707L14.338 0.731974C14.2504 0.644224 14.1464 0.574644 14.0319 0.527144C13.9174 0.479644 13.7946 0.4552 13.6706 0.4552C13.5467 0.4552 13.4239 0.479644 13.3094 0.527144C13.1949 0.574644 13.0908 0.644224 13.0033 0.731974L9.61818 4.11707C9.53043 4.20465 9.46081 4.3087 9.41331 4.42322C9.36581 4.53774 9.34137 4.66049 9.34137 4.78447C9.34137 4.90845 9.36581 5.0312 9.41331 5.14572C9.46081 5.26024 9.53043 5.36428 9.61818 5.45186L13.0033 8.83691C13.0908 8.92466 13.1949 8.99429 13.3094 9.04179C13.4239 9.08929 13.5467 9.11374 13.6706 9.11374C13.7946 9.11374 13.9174 9.08929 14.0319 9.04179C14.1464 8.99429 14.2504 8.92466 14.338 8.83691L17.7231 5.45186C17.8108 5.36428 17.8805 5.26024 17.928 5.14572C17.9755 5.0312 17.9999 4.90845 17.9999 4.78447C17.9999 4.66049 17.9755 4.53769 17.928 4.42317C17.8805 4.30865 17.8108 4.20465 17.7231 4.11707Z" fill="#086A8B"/>
</svg>
