<svg width="19" height="18" viewBox="0 0 19 18" fill="none" xmlns="http://www.w3.org/2000/svg">
<path d="M18.7205 3.10947L15.888 0.276912C15.8004 0.18896 15.6962 0.119196 15.5815 0.0716692C15.4669 0.0241422 15.3439 -0.000197198 15.2198 1.20869e-06H3.87818C3.75404 -0.000197646 3.6311 0.0241422 3.51642 0.0716692C3.40173 0.119196 3.29758 0.188959 3.20997 0.276912L0.377419 3.10947C0.288665 3.19702 0.218214 3.30136 0.170184 3.41641C0.122154 3.53145 0.0975016 3.65491 0.097657 3.77958V16.0672C0.0978397 16.5685 0.297048 17.0492 0.651502 17.4037C1.00596 17.7581 1.48664 17.9573 1.98792 17.9575H17.11C17.6113 17.9573 18.092 17.7581 18.4465 17.4037C18.8009 17.0492 19.0001 16.5685 19.0003 16.0672V3.77958C19.0005 3.65491 18.9758 3.53145 18.9278 3.41641C18.8797 3.30136 18.8093 3.19702 18.7205 3.10947ZM4.26948 1.89026H14.8285L15.7736 2.83539H3.32435L4.26948 1.89026ZM14.2746 10.3964V11.3416H4.82331V7.56105H6.71358V9.45131H12.3844V7.56105H14.2746V10.3964Z" fill="white"/>
</svg>
