<svg width="54" height="27" viewBox="0 0 54 27" fill="none" xmlns="http://www.w3.org/2000/svg">
<g opacity="0.5">
<path d="M51.5186 26.4903C51.1082 26.4933 50.7061 26.3743 50.3634 26.1485C50.0207 25.9227 49.7528 25.6001 49.5937 25.2218C49.4346 24.8435 49.3914 24.4265 49.4696 24.0236C49.5479 23.6207 49.744 23.2501 50.0332 22.9589C50.3223 22.6676 50.6914 22.4688 51.0937 22.3876C51.496 22.3064 51.9134 22.3466 52.2929 22.5029C52.6723 22.6593 52.9968 22.9249 53.2251 23.2659C53.4534 23.6069 53.5753 24.0081 53.5754 24.4185C53.5764 24.6896 53.524 24.9583 53.4212 25.2091C53.3184 25.46 53.1672 25.6881 52.9762 25.8805C52.7852 26.0729 52.5581 26.2258 52.308 26.3304C52.0579 26.4351 51.7897 26.4894 51.5186 26.4903Z" fill="white" fill-opacity="0.5"/>
<path d="M51.5186 15.6133C51.1082 15.6163 50.7061 15.4973 50.3634 15.2715C50.0207 15.0456 49.7528 14.7231 49.5937 14.3448C49.4346 13.9665 49.3914 13.5494 49.4696 13.1465C49.5479 12.7436 49.744 12.3731 50.0332 12.0818C50.3223 11.7905 50.6915 11.5917 51.0938 11.5105C51.4961 11.4294 51.9134 11.4695 52.2929 11.6259C52.6724 11.7822 52.9968 12.0478 53.2251 12.3888C53.4535 12.7299 53.5754 13.1311 53.5754 13.5415C53.5764 13.8126 53.524 14.0812 53.4212 14.3321C53.3184 14.5829 53.1672 14.8111 52.9762 15.0035C52.7852 15.1959 52.5582 15.3488 52.3081 15.4534C52.058 15.558 51.7897 15.6124 51.5186 15.6133Z" fill="white" fill-opacity="0.5"/>
<path d="M51.5186 4.73642C51.1082 4.73941 50.7061 4.62044 50.3634 4.3946C50.0207 4.16877 49.7528 3.84624 49.5937 3.46793C49.4346 3.08961 49.3914 2.67256 49.4696 2.26967C49.5479 1.86678 49.744 1.4962 50.0332 1.20494C50.3223 0.913681 50.6915 0.714858 51.0938 0.633693C51.4961 0.552528 51.9134 0.59268 52.2929 0.749051C52.6724 0.905422 52.9968 1.17097 53.2251 1.51201C53.4535 1.85305 53.5754 2.25422 53.5754 2.66464C53.5764 2.93574 53.524 3.2044 53.4212 3.45525C53.3184 3.70611 53.1672 3.93425 52.9762 4.12665C52.7852 4.31904 52.5581 4.47192 52.308 4.57654C52.0579 4.68117 51.7897 4.7355 51.5186 4.73642Z" fill="white" fill-opacity="0.5"/>
<path d="M39.1797 26.4903C38.7693 26.4933 38.3673 26.3744 38.0246 26.1485C37.6819 25.9227 37.414 25.6002 37.2549 25.2219C37.0957 24.8435 37.0525 24.4265 37.1308 24.0236C37.209 23.6207 37.4051 23.2501 37.6943 22.9589C37.9834 22.6676 38.3526 22.4688 38.7549 22.3876C39.1572 22.3064 39.5745 22.3466 39.954 22.5029C40.3335 22.6593 40.6579 22.9249 40.8862 23.2659C41.1146 23.6069 41.2365 24.0081 41.2365 24.4185C41.2375 24.6896 41.1852 24.9583 41.0824 25.2091C40.9796 25.46 40.8283 25.6881 40.6373 25.8805C40.4463 26.0729 40.2193 26.2258 39.9692 26.3304C39.7191 26.4351 39.4508 26.4894 39.1797 26.4903Z" fill="white" fill-opacity="0.5"/>
<path d="M39.1798 15.6133C38.7694 15.6163 38.3673 15.4973 38.0246 15.2715C37.6819 15.0456 37.414 14.7231 37.2549 14.3448C37.0957 13.9665 37.0525 13.5494 37.1308 13.1465C37.209 12.7436 37.4051 12.3731 37.6943 12.0818C37.9834 11.7905 38.3526 11.5917 38.7549 11.5105C39.1572 11.4294 39.5746 11.4695 39.954 11.6259C40.3335 11.7822 40.6579 12.0478 40.8863 12.3888C41.1146 12.7299 41.2365 13.131 41.2365 13.5415C41.2376 13.8126 41.1852 14.0812 41.0824 14.3321C40.9796 14.5829 40.8284 14.8111 40.6374 15.0035C40.4464 15.1959 40.2193 15.3488 39.9692 15.4534C39.7191 15.558 39.4509 15.6124 39.1798 15.6133Z" fill="white" fill-opacity="0.5"/>
<path d="M39.1798 4.73642C38.7693 4.73941 38.3673 4.62045 38.0246 4.39462C37.6819 4.16878 37.414 3.84625 37.2548 3.46794C37.0957 3.08963 37.0525 2.67258 37.1308 2.26969C37.209 1.8668 37.4051 1.49622 37.6943 1.20495C37.9834 0.913687 38.3526 0.714862 38.7549 0.633695C39.1572 0.552528 39.5746 0.592677 39.954 0.749047C40.3335 0.905418 40.658 1.17097 40.8863 1.51201C41.1146 1.85305 41.2365 2.25422 41.2365 2.66464C41.2375 2.93574 41.1852 3.2044 41.0824 3.45525C40.9796 3.7061 40.8283 3.93424 40.6373 4.12664C40.4463 4.31903 40.2193 4.47191 39.9692 4.57654C39.7191 4.68117 39.4509 4.7355 39.1798 4.73642Z" fill="white" fill-opacity="0.5"/>
<path d="M26.8418 26.4903C26.4314 26.4933 26.0293 26.3743 25.6867 26.1485C25.344 25.9227 25.0761 25.6001 24.917 25.2218C24.7578 24.8435 24.7146 24.4265 24.7929 24.0236C24.8711 23.6207 25.0672 23.2501 25.3564 22.9589C25.6455 22.6676 26.0147 22.4688 26.417 22.3876C26.8193 22.3064 27.2366 22.3466 27.6161 22.5029C27.9955 22.6593 28.32 22.9249 28.5484 23.2659C28.7767 23.6069 28.8986 24.0081 28.8986 24.4185C28.9005 24.966 28.6849 25.4918 28.2992 25.8803C27.9135 26.2689 27.3893 26.4883 26.8418 26.4903Z" fill="white" fill-opacity="0.5"/>
<path d="M26.8418 15.6133C26.4314 15.6163 26.0294 15.4973 25.6867 15.2715C25.344 15.0456 25.0761 14.7231 24.917 14.3448C24.7578 13.9665 24.7146 13.5494 24.7929 13.1465C24.8711 12.7436 25.0672 12.3731 25.3564 12.0818C25.6455 11.7905 26.0147 11.5917 26.417 11.5105C26.8193 11.4294 27.2367 11.4695 27.6161 11.6259C27.9956 11.7822 28.3201 12.0478 28.5484 12.3888C28.7767 12.7299 28.8986 13.1311 28.8986 13.5415C28.9005 14.0889 28.6849 14.6147 28.2992 15.0033C27.9135 15.3918 27.3893 15.6112 26.8418 15.6133Z" fill="white" fill-opacity="0.5"/>
<path d="M26.8418 4.73642C26.4314 4.73941 26.0294 4.62044 25.6867 4.3946C25.344 4.16877 25.0761 3.84624 24.917 3.46793C24.7578 3.08961 24.7146 2.67256 24.7929 2.26967C24.8711 1.86678 25.0672 1.4962 25.3564 1.20494C25.6456 0.913681 26.0147 0.714858 26.417 0.633693C26.8193 0.552528 27.2367 0.59268 27.6161 0.749051C27.9956 0.905422 28.32 1.17097 28.5484 1.51201C28.7767 1.85305 28.8986 2.25422 28.8986 2.66464C28.9005 3.2121 28.6849 3.73791 28.2992 4.12643C27.9135 4.51495 27.3893 4.73437 26.8418 4.73642Z" fill="white" fill-opacity="0.5"/>
<path d="M14.5038 26.4903C14.0934 26.4935 13.6912 26.3747 13.3484 26.1489C13.0056 25.9232 12.7376 25.6007 12.5783 25.2224C12.4191 24.8441 12.3758 24.4271 12.4539 24.0241C12.532 23.6212 12.7281 23.2505 13.0172 22.9592C13.3063 22.6678 13.6755 22.4689 14.0778 22.3877C14.4801 22.3064 14.8975 22.3465 15.277 22.5029C15.6566 22.6592 15.9811 22.9248 16.2094 23.2658C16.4378 23.6069 16.5597 24.0081 16.5597 24.4185C16.5618 24.9659 16.3464 25.4917 15.9608 25.8802C15.5753 26.2687 15.0512 26.4882 14.5038 26.4903Z" fill="white" fill-opacity="0.5"/>
<path d="M14.5038 15.6133C14.0934 15.6164 13.6913 15.4976 13.3484 15.2719C13.0056 15.0461 12.7376 14.7237 12.5783 14.3454C12.4191 13.9671 12.3758 13.55 12.4539 13.147C12.532 12.7441 12.7281 12.3734 13.0172 12.0821C13.3063 11.7907 13.6755 11.5918 14.0778 11.5106C14.4801 11.4294 14.8976 11.4694 15.2771 11.6258C15.6566 11.7821 15.9811 12.0477 16.2095 12.3887C16.4378 12.7298 16.5598 13.131 16.5598 13.5415C16.5618 14.0888 16.3464 14.6146 15.9609 15.0031C15.5753 15.3917 15.0512 15.6111 14.5038 15.6133Z" fill="white" fill-opacity="0.5"/>
<path d="M14.5038 4.73642C14.0934 4.73958 13.6912 4.62076 13.3484 4.39502C13.0056 4.16929 12.7376 3.84681 12.5783 3.46851C12.4191 3.09022 12.3758 2.67314 12.4539 2.27019C12.532 1.86725 12.7281 1.49659 13.0172 1.20525C13.3063 0.913899 13.6755 0.714992 14.0778 0.633758C14.4802 0.552524 14.8976 0.592619 15.2771 0.748965C15.6566 0.905311 15.9811 1.17086 16.2095 1.51192C16.4378 1.85298 16.5597 2.25419 16.5597 2.66464C16.5618 3.212 16.3464 3.73777 15.9608 4.1263C15.5752 4.51483 15.0512 4.73429 14.5038 4.73642Z" fill="white" fill-opacity="0.5"/>
<path d="M2.16593 26.4903C1.75549 26.4935 1.35336 26.3747 1.01055 26.1489C0.667745 25.9232 0.399706 25.6007 0.240448 25.2224C0.0811899 24.8441 0.0378756 24.4271 0.116014 24.0241C0.194153 23.6212 0.390224 23.2505 0.679339 22.9592C0.968453 22.6678 1.33759 22.4689 1.73992 22.3877C2.14225 22.3064 2.55964 22.3465 2.93915 22.5029C3.31866 22.6592 3.64319 22.9248 3.87155 23.2658C4.09992 23.6069 4.22183 24.0081 4.22184 24.4185C4.22391 24.9659 4.00849 25.4917 3.62294 25.8802C3.23738 26.2687 2.71329 26.4882 2.16593 26.4903Z" fill="white" fill-opacity="0.5"/>
<path d="M2.16596 15.6133C1.75551 15.6164 1.35336 15.4976 1.01055 15.2719C0.667742 15.0461 0.399709 14.7237 0.240449 14.3454C0.0811879 13.9671 0.0378761 13.55 0.116015 13.1471C0.194153 12.7441 0.390222 12.3734 0.679339 12.0821C0.968456 11.7907 1.33761 11.5918 1.73995 11.5106C2.14228 11.4294 2.55966 11.4694 2.93918 11.6258C3.31869 11.7821 3.64321 12.0477 3.87158 12.3887C4.09994 12.7298 4.22186 13.131 4.22186 13.5415C4.22393 14.0888 4.00852 14.6146 3.62296 15.0031C3.23741 15.3917 2.71332 15.6111 2.16596 15.6133Z" fill="white" fill-opacity="0.5"/>
<path d="M2.16593 4.73642C1.75549 4.73958 1.35336 4.62075 1.01055 4.39502C0.667746 4.16929 0.399706 3.84682 0.240449 3.46852C0.0811916 3.09022 0.0378742 2.67314 0.116015 2.27019C0.194156 1.86725 0.390222 1.49659 0.67934 1.20525C0.968457 0.913899 1.33761 0.714992 1.73995 0.633758C2.14228 0.552524 2.55967 0.592619 2.93918 0.748965C3.31869 0.905311 3.64322 1.17086 3.87158 1.51192C4.09994 1.85298 4.22184 2.25419 4.22184 2.66464C4.22391 3.212 4.00849 3.73777 3.62294 4.1263C3.23738 4.51482 2.71329 4.73429 2.16593 4.73642Z" fill="white" fill-opacity="0.5"/>
</g>
</svg>
