<svg width="40" height="40" viewBox="0 0 40 40" fill="none" xmlns="http://www.w3.org/2000/svg">
<path d="M30.5572 21.5511C26.2992 21.5511 22.835 25.0153 22.835 29.2734C22.835 33.5315 26.2992 36.9957 30.5572 36.9957C34.8153 36.9957 38.2818 33.5315 38.2818 29.2734C38.2818 25.0153 34.8166 21.5511 30.5572 21.5511Z" fill="#FF9900"/>
<path d="M29.0536 25.646C29.0536 25.7882 29.0748 25.9253 29.1118 26.0559H26.708C26.603 26.0559 26.5002 26.0862 26.4119 26.1431C26.3236 26.2 26.2536 26.2812 26.2102 26.3768L24.5625 30.0087C24.5301 30.0796 24.5137 30.1567 24.5137 30.2346C24.5137 31.4447 25.4981 32.4292 26.7082 32.4292C27.9183 32.4292 28.9049 31.4447 28.9049 30.2346C28.9049 30.1539 28.887 30.0776 28.8556 30.0086L27.5573 27.1496H30.0102V33.3085H28.9294C28.7843 33.3085 28.6452 33.3662 28.5427 33.4687C28.4401 33.5713 28.3825 33.7104 28.3825 33.8554C28.3825 34.0005 28.4401 34.1396 28.5427 34.2421C28.6452 34.3447 28.7843 34.4023 28.9294 34.4023H32.1848C32.3298 34.4023 32.4689 34.3447 32.5715 34.2421C32.674 34.1396 32.7316 34.0005 32.7316 33.8554C32.7316 33.7104 32.674 33.5713 32.5715 33.4687C32.4689 33.3662 32.3298 33.3085 32.1848 33.3085H31.1039V27.1496H33.5573L32.2603 30.0087C32.2279 30.0796 32.2115 30.1567 32.2115 30.2346C32.2115 31.4447 33.1959 32.4292 34.406 32.4292C35.6161 32.4292 36.6027 31.4447 36.6027 30.2346C36.6027 30.1539 36.5848 30.0776 36.5534 30.0086L34.9039 26.3766C34.8605 26.281 34.7904 26.1999 34.7021 26.143C34.6138 26.0861 34.511 26.0559 34.406 26.0559H32.0024C32.0395 25.9254 32.0606 25.7883 32.0606 25.646C32.0606 24.8182 31.3861 24.1447 30.557 24.1447C29.728 24.1447 29.0536 24.8182 29.0536 25.646ZM26.7085 27.9257L27.509 29.6878H25.9091L26.7085 27.9257ZM26.7082 31.3354C26.3001 31.3354 25.9432 31.1123 25.7531 30.7815H27.6652C27.4747 31.1122 27.117 31.3354 26.7082 31.3354ZM34.406 31.3354C33.9979 31.3354 33.641 31.1123 33.4509 30.7815H35.363C35.1725 31.1122 34.8148 31.3354 34.406 31.3354ZM34.4063 27.9258L35.2067 29.6878H33.607L34.4063 27.9258ZM30.967 25.6461C30.967 25.8721 30.783 26.056 30.5571 26.056C30.3312 26.056 30.1473 25.8721 30.1473 25.6461C30.1473 25.4214 30.3312 25.2385 30.5571 25.2385C30.783 25.2385 30.967 25.4214 30.967 25.6461Z" fill="white"/>
<path d="M36.0555 16.2497V15.3903H38.0664C38.788 15.3903 39.3751 14.8032 39.3751 14.0816V12.8637C39.3751 12.2927 39.0069 11.8072 38.4959 11.6288L38.5014 11.6184L20.2556 1.97398C20.1769 1.93235 20.0892 1.91058 20.0001 1.91058C19.911 1.91058 19.8233 1.93235 19.7445 1.97398L1.49664 11.6183L1.50227 11.629C0.992422 11.8074 0.625 12.2928 0.625 12.8636V14.0816C0.625 14.8032 1.21109 15.3902 1.93148 15.3902H3.94469V16.2496C3.94469 16.9863 4.35398 17.6291 4.95672 17.9623V30.1448C4.35398 30.4777 3.94469 31.1197 3.94469 31.8556V32.7172H3.48828C2.80328 32.7172 2.24609 33.2298 2.24609 33.8598V34.8564H1.93156C1.21117 34.8564 0.625078 35.369 0.625078 35.999V37.5425C0.625078 37.6875 0.682695 37.8266 0.785254 37.9292C0.887813 38.0318 1.02691 38.0894 1.17195 38.0894H38.8282C38.9732 38.0894 39.1123 38.0318 39.2149 37.9292C39.3175 37.8266 39.3751 37.6875 39.3751 37.5425V35.999C39.3751 35.369 38.788 34.8564 38.0664 34.8564H37.7518V34.3652C38.7738 32.9261 39.3751 31.1687 39.3751 29.2734C39.3751 26.0482 37.6334 23.2224 35.0412 21.6855V17.963C35.6452 17.6299 36.0555 16.9869 36.0555 16.2497ZM34.9617 16.2497C34.9617 16.7248 34.5752 17.1112 34.1002 17.1112H30.3132C29.8381 17.1112 29.4516 16.7248 29.4516 16.2497V15.3903H34.9617V16.2497ZM22.8345 25.0244V17.9617C23.4373 17.6283 23.8466 16.9859 23.8466 16.2497V15.3903H28.3578V16.2497C28.3578 16.9869 28.768 17.6299 29.3721 17.963V20.5373C26.5548 20.9174 24.1556 22.633 22.8345 25.0244ZM6.05047 18.2049H9.53195V29.9025H6.05047V18.2049ZM10.6257 30.1442V17.963C11.2297 17.6298 11.6399 16.9869 11.6399 16.2497V15.3903H16.1512V16.2497C16.1512 16.9869 16.5614 17.6299 17.1654 17.963V30.1442C16.5614 30.477 16.1512 31.1192 16.1512 31.8556V32.7172H11.6399V31.8556C11.6399 31.1193 11.2297 30.477 10.6257 30.1442ZM22.7528 16.2497C22.7528 16.7248 22.3663 17.1112 21.8913 17.1112H18.1066C17.6316 17.1112 17.2451 16.7248 17.2451 16.2497V15.3903H22.7529L22.7528 16.2497ZM17.245 31.8556C17.245 31.3818 17.6315 30.9963 18.1066 30.9963H21.8912C21.8977 30.9963 21.904 30.997 21.9104 30.9971C22.0277 31.5872 22.2056 32.1636 22.4414 32.7172H17.2449L17.245 31.8556ZM21.7408 29.9025H18.2593V18.2049H21.7408V29.9025ZM20.0001 3.07594L36.0409 11.5549H33.1506L20.2556 4.73992C20.1769 4.69832 20.0892 4.67658 20.0001 4.67658C19.9111 4.67658 19.8234 4.69832 19.7446 4.73992L6.84953 11.5549H3.95727L20.0001 3.07594ZM30.8098 11.5549H9.19023L20.0001 5.84195L30.8098 11.5549ZM1.93156 14.2966C1.81625 14.2966 1.71883 14.1981 1.71883 14.0816V12.8637C1.71883 12.7472 1.81625 12.6487 1.93156 12.6487H38.0664C38.1829 12.6487 38.2813 12.7472 38.2813 12.8637V14.0816C38.2813 14.1982 38.1829 14.2966 38.0664 14.2966H1.93156ZM10.5463 15.3903V16.2497C10.5463 16.7248 10.1598 17.1112 9.68476 17.1112H5.89781C5.42406 17.1112 5.03852 16.7248 5.03852 16.2497V15.3903H10.5463ZM5.03852 31.8556C5.03852 31.3818 5.42406 30.9963 5.89781 30.9963H9.68476C10.1598 30.9963 10.5463 31.3818 10.5463 31.8556V32.7172H5.03852V31.8556ZM3.33992 33.9655C3.33992 33.8835 3.40375 33.8117 3.48586 33.8109H23.001C23.2216 34.1768 23.4683 34.5262 23.7392 34.8564H3.33984L3.33992 33.9655ZM1.71891 36.9957V36.0205C1.74203 35.9963 1.81578 35.9502 1.93164 35.9502H24.8063C25.2694 36.3496 25.7726 36.7 26.3079 36.9957H1.71891ZM38.2814 36.0212V36.9957H34.807C35.3424 36.7 35.8458 36.3496 36.3091 35.9502H38.0665C38.183 35.9502 38.2577 35.9968 38.2814 36.0212ZM38.2814 29.2734C38.2814 33.5315 34.8163 36.9957 30.5569 36.9957C26.2975 36.9957 22.8346 33.5316 22.8346 29.2734C22.8346 25.0153 26.2988 21.5512 30.5569 21.5512C34.8149 21.5512 38.2814 25.0153 38.2814 29.2734ZM30.5569 20.4574C30.5265 20.4574 30.4963 20.4583 30.466 20.4586V18.205H33.9475V21.1356C32.9031 20.6991 31.7577 20.4574 30.5569 20.4574ZM18.1598 9.01031C18.1598 10.0237 18.9853 10.8483 20.0001 10.8483C21.0148 10.8483 21.838 10.0237 21.838 9.01031C21.838 7.99687 21.0134 7.17016 20.0001 7.17016C18.9867 7.17016 18.1598 7.99562 18.1598 9.01031ZM20.7442 9.01031C20.7442 9.42062 20.4104 9.75453 20.0001 9.75453C19.5898 9.75453 19.2536 9.4207 19.2536 9.01031C19.2536 8.59992 19.5884 8.26391 20.0001 8.26391C20.4117 8.26391 20.7442 8.59875 20.7442 9.01031Z" fill="#019FC9"/>
<path d="M18.2598 18.205H21.7413V29.9026H18.2598V18.205Z" fill="#C1F3EE"/>
<path d="M22.7529 16.2497V15.3903H17.2451V16.2497C17.2451 16.7248 17.6316 17.1113 18.1067 17.1113H21.8913C22.3664 17.1113 22.7529 16.7248 22.7529 16.2497Z" fill="#C1F3EE"/>
<path d="M23.0009 33.811H3.48578C3.40367 33.8117 3.33984 33.8835 3.33984 33.9656V34.8565H23.7391C23.4681 34.5263 23.2214 34.1769 23.0009 33.811L23.0009 33.811ZM6.05047 18.205H9.53195V29.9026H6.05047V18.205Z" fill="#C1F3EE"/>
<path d="M10.5459 16.2497V15.3903H5.03809V16.2497C5.03809 16.7248 5.42363 17.1113 5.89738 17.1113H9.68434C10.1594 17.1113 10.5459 16.7248 10.5459 16.2497ZM5.03809 32.7172H10.5459V31.8556C10.5459 31.3818 10.1594 30.9963 9.68434 30.9963H5.89738C5.42363 30.9963 5.03809 31.3818 5.03809 31.8556V32.7172Z" fill="#C1F3EE"/>
<path d="M17.2451 32.7172H22.4416C22.2059 32.1637 22.0279 31.5872 21.9106 30.9971C21.9041 30.997 21.8979 30.9963 21.8914 30.9963H18.1068C17.6317 30.9963 17.2452 31.3818 17.2452 31.8557L17.2451 32.7172Z" fill="#C1F3EE"/>
<path d="M36.3089 35.9503C35.8457 36.3497 35.3423 36.7 34.8069 36.9957H38.2812V36.0213C38.2576 35.9968 38.1829 35.9503 38.0663 35.9503H36.3089ZM2.79289 35.9503H1.93148C1.8157 35.9503 1.74188 35.9964 1.71875 36.0205V36.9957H26.3077C25.7724 36.7 25.2691 36.3496 24.806 35.9503H2.79289Z" fill="#C1F3EE"/>
<path d="M19.2539 9.01032C19.2539 9.42063 19.5887 9.75454 20.0004 9.75454C20.412 9.75454 20.7445 9.42071 20.7445 9.01032C20.7445 8.59993 20.4107 8.26392 20.0004 8.26392C19.5901 8.26392 19.2539 8.59876 19.2539 9.01032Z" fill="#C1F3EE"/>
<path d="M19.7443 4.73991C19.823 4.69832 19.9107 4.67657 19.9998 4.67657C20.0889 4.67657 20.1766 4.69832 20.2553 4.73991L33.1503 11.5549H36.0406L19.9998 3.07593L3.95703 11.5549H6.8493L19.7443 4.73991Z" fill="#C1F3EE"/>
<path d="M9.19051 11.5549H30.81L20.0003 5.84198L9.19051 11.5549ZM21.8382 9.01034C21.8382 10.0238 21.0137 10.8483 20.0004 10.8483C18.987 10.8483 18.1601 10.0238 18.1601 9.01034C18.1601 7.9969 18.9856 7.17018 20.0004 7.17018C21.0151 7.17018 21.8382 7.99565 21.8382 9.01034Z" fill="#C1F3EE"/>
<path d="M34.9612 16.2497V15.3903H29.4512V16.2497C29.4512 16.7248 29.8377 17.1113 30.3127 17.1113H34.0997C34.5748 17.1113 34.9612 16.7248 34.9612 16.2497Z" fill="#C1F3EE"/>
<path d="M30.5567 20.4574C31.7576 20.4574 32.903 20.699 33.9473 21.1356V18.205H30.4658V20.4586C30.4961 20.4583 30.5263 20.4574 30.5567 20.4574Z" fill="#C1F3EE"/>
<path d="M38.0663 12.6487H1.93148C1.81617 12.6487 1.71875 12.7471 1.71875 12.8636V14.0816C1.71875 14.1981 1.81617 14.2965 1.93148 14.2965H38.0663C38.1828 14.2965 38.2812 14.1981 38.2812 14.0816V12.8636C38.2812 12.7471 38.1828 12.6487 38.0663 12.6487Z" fill="#C1F3EE"/>
</svg>
