<svg width="9" height="11" viewBox="0 0 9 11" fill="none" xmlns="http://www.w3.org/2000/svg">
<path d="M1.63725 0C2.06251 1.28334e-05 2.39563 0.192186 2.63661 0.576518C2.89176 0.945505 3.03352 1.45285 3.06187 2.09854V4.51993H3.65723L4.65659 5.62686H3.06187V8.76313C3.06186 9.00908 3.14692 9.23202 3.31703 9.43194C3.48712 9.63178 3.76354 9.7317 4.14628 9.7317C4.64241 9.7317 5.16689 9.43194 5.71974 8.83235C6.28674 8.21737 6.58442 7.58704 6.61278 6.94132L6.35763 6.96439C5.4504 6.96439 4.9968 6.44167 4.9968 5.39625C4.9968 5.04265 5.1031 4.72749 5.31574 4.45075C5.52836 4.17403 5.88275 4.03566 6.37889 4.03565C6.90337 4.03566 7.3428 4.28164 7.6972 4.7736C8.06574 5.26558 8.25002 5.86516 8.25003 6.57236C8.25002 7.61778 7.83894 8.61709 7.01678 9.57027C6.20878 10.5234 5.24486 11 4.12502 11C3.71393 11 3.27449 10.8079 2.80672 10.4235C2.3531 10.0238 2.08377 9.63948 1.99872 9.27043V5.62686H0.978096L0 4.51993H1.99872V2.32914C1.99872 1.88331 1.75065 1.62196 1.25452 1.54508C1.02771 1.54509 0.878869 1.58353 0.807993 1.66039C0.680415 1.42979 0.559925 1.15306 0.446523 0.830188V0.714889C0.446522 0.515038 0.588275 0.345927 0.871782 0.207549C1.15529 0.0691967 1.41044 1.28334e-05 1.63725 0Z" fill="#2D5E6F" fill-opacity="0.75"/>
</svg>
