<svg width="20" height="19" viewBox="0 0 20 19" fill="none" xmlns="http://www.w3.org/2000/svg">
<path d="M9.92956 0.2854C8.07886 0.2854 6.26973 0.834174 4.73093 1.86237C3.19214 2.89056 1.99278 4.35199 1.28455 6.06181C0.576323 7.77163 0.391013 9.65303 0.752067 11.4682C1.11312 13.2833 2.00432 14.9506 3.31296 16.2593C4.6216 17.5679 6.28891 18.4591 8.10404 18.8202C9.91918 19.1812 11.8006 18.9959 13.5104 18.2877C15.2203 17.5794 16.6817 16.3801 17.7099 14.8413C18.7381 13.3025 19.2868 11.4934 19.2868 9.64269C19.284 7.16184 18.2973 4.78339 16.5431 3.02917C14.7888 1.27495 12.4104 0.28821 9.92956 0.2854ZM8.99383 15.257V10.5784H5.25092L10.8653 4.02831V8.70695H14.6082L8.99383 15.257Z" fill="white"/>
</svg>
