<svg width="15" height="15" viewBox="0 0 15 15" fill="none" xmlns="http://www.w3.org/2000/svg">
<path fill-rule="evenodd" clip-rule="evenodd" d="M11.25 9.48891L12.7116 8.02688C12.937 7.80144 13.0792 7.50607 13.1147 7.18922C13.1503 6.87237 13.0771 6.55285 12.9072 6.28306C12.7373 6.01327 12.4807 5.80922 12.1796 5.70439C11.8785 5.59955 11.5507 5.60015 11.25 5.70609V1.875C11.25 1.50188 11.1019 1.14422 10.838 0.880781C10.7075 0.750107 10.5525 0.646452 10.3819 0.57575C10.2113 0.505048 10.0284 0.468687 9.84375 0.46875H3.28125C2.90813 0.46875 2.55047 0.616875 2.28703 0.880781C2.15636 1.01127 2.0527 1.16625 1.982 1.33686C1.9113 1.50746 1.87494 1.69033 1.875 1.875V13.125C1.875 13.4981 2.02313 13.8558 2.28703 14.1192C2.41752 14.2499 2.5725 14.3535 2.74311 14.4243C2.91371 14.495 3.09658 14.5313 3.28125 14.5312H9.84375C10.2169 14.5312 10.5745 14.3831 10.838 14.1192C10.9686 13.9887 11.0723 13.8337 11.143 13.6631C11.2137 13.4925 11.2501 13.3097 11.25 13.125V9.48891ZM12.0488 6.70125C12.1366 6.78915 12.186 6.90836 12.186 7.03266C12.186 7.15695 12.1366 7.27616 12.0488 7.36406L7.69406 11.7188H7.03125V11.0559L11.3859 6.70125C11.4738 6.61337 11.593 6.56401 11.7173 6.56401C11.8416 6.56401 11.9608 6.61337 12.0488 6.70125ZM4.21875 7.03125H6.5625C6.68682 7.03125 6.80605 6.98186 6.89396 6.89396C6.98186 6.80605 7.03125 6.68682 7.03125 6.5625C7.03125 6.43818 6.98186 6.31895 6.89396 6.23104C6.80605 6.14314 6.68682 6.09375 6.5625 6.09375H4.21875C4.09443 6.09375 3.9752 6.14314 3.88729 6.23104C3.79939 6.31895 3.75 6.43818 3.75 6.5625C3.75 6.68682 3.79939 6.80605 3.88729 6.89396C3.9752 6.98186 4.09443 7.03125 4.21875 7.03125ZM4.21875 5.15625H8.90625C9.03057 5.15625 9.1498 5.10686 9.23771 5.01896C9.32561 4.93105 9.375 4.81182 9.375 4.6875C9.375 4.56318 9.32561 4.44395 9.23771 4.35604C9.1498 4.26814 9.03057 4.21875 8.90625 4.21875H4.21875C4.09443 4.21875 3.9752 4.26814 3.88729 4.35604C3.79939 4.44395 3.75 4.56318 3.75 4.6875C3.75 4.81182 3.79939 4.93105 3.88729 5.01896C3.9752 5.10686 4.09443 5.15625 4.21875 5.15625ZM4.21875 3.28125H8.90625C9.03057 3.28125 9.1498 3.23186 9.23771 3.14396C9.32561 3.05605 9.375 2.93682 9.375 2.8125C9.375 2.68818 9.32561 2.56895 9.23771 2.48104C9.1498 2.39314 9.03057 2.34375 8.90625 2.34375H4.21875C4.09443 2.34375 3.9752 2.39314 3.88729 2.48104C3.79939 2.56895 3.75 2.68818 3.75 2.8125C3.75 2.93682 3.79939 3.05605 3.88729 3.14396C3.9752 3.23186 4.09443 3.28125 4.21875 3.28125Z" fill="white"/>
</svg>
