<svg width="18" height="18" viewBox="0 0 18 18" fill="none" xmlns="http://www.w3.org/2000/svg">
<path d="M12.7365 14.8437L15.1979 12.4L14.4542 11.6562L12.7365 13.3385L12.0458 12.6479L11.3021 13.4094L12.7365 14.8437ZM4.75 6.875H13.25V5.45833H4.75V6.875ZM13.25 16.7917C12.2701 16.7917 11.4348 16.4462 10.7439 15.7554C10.0531 15.0645 9.70786 14.2294 9.70833 13.25C9.70833 12.2701 10.0538 11.4348 10.7446 10.7439C11.4355 10.0531 12.2706 9.70786 13.25 9.70833C14.2299 9.70833 15.0652 10.0538 15.7561 10.7446C16.4469 11.4355 16.7921 12.2706 16.7917 13.25C16.7917 14.2299 16.4462 15.0652 15.7554 15.7561C15.0645 16.4469 14.2294 16.7921 13.25 16.7917ZM2.625 16.0833V2.625H15.375V8.76979C15.1507 8.66354 14.9205 8.575 14.6844 8.50417C14.4483 8.43333 14.2062 8.38021 13.9583 8.34479V4.04167H4.04167V13.9937H8.34479C8.40382 14.3597 8.49543 14.708 8.61962 15.0385C8.74382 15.3691 8.90603 15.6819 9.10625 15.9771L9 16.0833L7.9375 15.0208L6.875 16.0833L5.8125 15.0208L4.75 16.0833L3.6875 15.0208L2.625 16.0833ZM4.75 12.5417H8.34479C8.38021 12.2937 8.43333 12.0517 8.50417 11.8156C8.575 11.5795 8.66354 11.3493 8.76979 11.125H4.75V12.5417ZM4.75 9.70833H9.77917C10.2278 9.27153 10.7503 8.9261 11.3467 8.67204C11.9431 8.41799 12.5776 8.29119 13.25 8.29167H4.75V9.70833Z" fill="white"/>
</svg>
