<svg width="15" height="15" viewBox="0 0 15 15" fill="none" xmlns="http://www.w3.org/2000/svg">
<path d="M2.5 8.125H6.25C6.41576 8.125 6.57473 8.05915 6.69194 7.94194C6.80915 7.82473 6.875 7.66576 6.875 7.5V2.5C6.875 2.33424 6.80915 2.17527 6.69194 2.05806C6.57473 1.94085 6.41576 1.875 6.25 1.875H2.5C2.33424 1.875 2.17527 1.94085 2.05806 2.05806C1.94085 2.17527 1.875 2.33424 1.875 2.5V7.5C1.875 7.66576 1.94085 7.82473 2.05806 7.94194C2.17527 8.05915 2.33424 8.125 2.5 8.125ZM1.875 12.5C1.875 12.6658 1.94085 12.8247 2.05806 12.9419C2.17527 13.0592 2.33424 13.125 2.5 13.125H6.25C6.41576 13.125 6.57473 13.0592 6.69194 12.9419C6.80915 12.8247 6.875 12.6658 6.875 12.5V10C6.875 9.83424 6.80915 9.67527 6.69194 9.55806C6.57473 9.44085 6.41576 9.375 6.25 9.375H2.5C2.33424 9.375 2.17527 9.44085 2.05806 9.55806C1.94085 9.67527 1.875 9.83424 1.875 10V12.5ZM8.125 12.5C8.125 12.6658 8.19085 12.8247 8.30806 12.9419C8.42527 13.0592 8.58424 13.125 8.75 13.125H12.5C12.6658 13.125 12.8247 13.0592 12.9419 12.9419C13.0592 12.8247 13.125 12.6658 13.125 12.5V8.125C13.125 7.95924 13.0592 7.80027 12.9419 7.68306C12.8247 7.56585 12.6658 7.5 12.5 7.5H8.75C8.58424 7.5 8.42527 7.56585 8.30806 7.68306C8.19085 7.80027 8.125 7.95924 8.125 8.125V12.5ZM8.75 6.25H12.5C12.6658 6.25 12.8247 6.18415 12.9419 6.06694C13.0592 5.94973 13.125 5.79076 13.125 5.625V2.5C13.125 2.33424 13.0592 2.17527 12.9419 2.05806C12.8247 1.94085 12.6658 1.875 12.5 1.875H8.75C8.58424 1.875 8.42527 1.94085 8.30806 2.05806C8.19085 2.17527 8.125 2.33424 8.125 2.5V5.625C8.125 5.79076 8.19085 5.94973 8.30806 6.06694C8.42527 6.18415 8.58424 6.25 8.75 6.25Z" fill="white"/>
</svg>
