<svg width="15" height="15" viewBox="0 0 15 15" fill="none" xmlns="http://www.w3.org/2000/svg">
<path d="M4.375 12.1875H9.6875C9.77038 12.1875 9.84987 12.2204 9.90847 12.279C9.96708 12.3376 10 12.4171 10 12.5C10 12.5829 9.96708 12.6624 9.90847 12.721C9.84987 12.7796 9.77038 12.8125 9.6875 12.8125H4.375C4.29212 12.8125 4.21263 12.7796 4.15403 12.721C4.09542 12.6624 4.0625 12.5829 4.0625 12.5C4.0625 12.4171 4.09542 12.3376 4.15403 12.279C4.21263 12.2204 4.29212 12.1875 4.375 12.1875Z" fill="white"/>
<path d="M11.875 0.9375H5V10.9375H4.375V0.9375H3.75C3.3356 0.9375 2.93817 1.10212 2.64515 1.39515C2.35212 1.68817 2.1875 2.0856 2.1875 2.5V12.5C2.1875 12.9144 2.35212 13.3118 2.64515 13.6049C2.93817 13.8979 3.3356 14.0625 3.75 14.0625H12.5C12.5829 14.0625 12.6624 14.0296 12.721 13.971C12.7796 13.9124 12.8125 13.8329 12.8125 13.75V1.875C12.8118 1.62659 12.7127 1.38856 12.5371 1.21291C12.3614 1.03725 12.1234 0.938242 11.875 0.9375ZM12.1875 13.4375H3.75C3.50136 13.4375 3.2629 13.3387 3.08709 13.1629C2.91127 12.9871 2.8125 12.7486 2.8125 12.5C2.8125 12.2514 2.91127 12.0129 3.08709 11.8371C3.2629 11.6613 3.50136 11.5625 3.75 11.5625H12.1875V13.4375Z" fill="white"/>
<path d="M12.5 10.9375H3.75C3.3356 10.9375 2.93817 11.1021 2.64515 11.3951C2.35212 11.6882 2.1875 12.0856 2.1875 12.5C2.1875 12.9144 2.35212 13.3118 2.64515 13.6049C2.93817 13.8979 3.3356 14.0625 3.75 14.0625H12.5C12.5829 14.0625 12.6624 14.0296 12.721 13.971C12.7796 13.9124 12.8125 13.8329 12.8125 13.75V11.25C12.8125 11.1671 12.7796 11.0876 12.721 11.029C12.6624 10.9704 12.5829 10.9375 12.5 10.9375ZM12.1875 13.4375H3.75C3.50136 13.4375 3.2629 13.3387 3.08709 13.1629C2.91127 12.9871 2.8125 12.7486 2.8125 12.5C2.8125 12.2514 2.91127 12.0129 3.08709 11.8371C3.2629 11.6613 3.50136 11.5625 3.75 11.5625H12.1875V13.4375Z" fill="white"/>
<path d="M5 10.9375V11.25C5 11.3329 4.96708 11.4124 4.90847 11.471C4.84987 11.5296 4.77038 11.5625 4.6875 11.5625C4.60462 11.5625 4.52513 11.5296 4.46653 11.471C4.40792 11.4124 4.375 11.3329 4.375 11.25V10.9375H5Z" fill="white"/>
<path d="M8.25 9V6M8.25 3.75V4.5" stroke="#2C3A93" stroke-width="0.8"/>
</svg>
