<svg width="24" height="24" viewBox="0 0 24 24" fill="none" xmlns="http://www.w3.org/2000/svg">
<g clip-path="url(#clip0_462_13257)">
<path d="M12.0603 13.7267C11.7014 13.7294 11.3537 13.8522 11.0727 14.0756C10.7918 14.2989 10.5937 14.6099 10.51 14.959C10.4264 15.3081 10.4621 15.6751 10.6114 16.0015C10.7606 16.3279 11.0149 16.595 11.3337 16.76V18.6667H12.667V16.82C13.0112 16.679 13.2958 16.4228 13.4722 16.0953C13.6487 15.7678 13.706 15.3892 13.6344 15.0241C13.5628 14.6591 13.3667 14.3302 13.0797 14.0936C12.7926 13.857 12.4323 13.7273 12.0603 13.7267Z" fill="#15245E"/>
<path d="M17.3337 9.99997V7.14664C17.3623 5.70123 16.8172 4.30333 15.8177 3.25883C14.8182 2.21433 13.4456 1.60828 12.0003 1.5733C10.5551 1.60828 9.18249 2.21433 8.18297 3.25883C7.18344 4.30333 6.63836 5.70123 6.66699 7.14664V9.99997H4.66699V21.3333C4.66699 21.6869 4.80747 22.0261 5.05752 22.2761C5.30756 22.5262 5.6467 22.6666 6.00033 22.6666H18.0003C18.3539 22.6666 18.6931 22.5262 18.9431 22.2761C19.1932 22.0261 19.3337 21.6869 19.3337 21.3333V9.99997H17.3337ZM8.00033 7.14664C7.97158 6.0548 8.37616 4.99596 9.12567 4.20149C9.87517 3.40701 10.9087 2.94149 12.0003 2.90664C13.092 2.94149 14.1255 3.40701 14.875 4.20149C15.6245 4.99596 16.0291 6.0548 16.0003 7.14664V9.99997H8.00033V7.14664ZM6.00033 21.3333V11.3333H18.0003V21.3333H6.00033Z" fill="#15245E"/>
</g>
<defs>
<clipPath id="clip0_462_13257">
<rect width="24" height="24" fill="white"/>
</clipPath>
</defs>
</svg>
