<svg width="15" height="15" viewBox="0 0 15 15" fill="none" xmlns="http://www.w3.org/2000/svg">
<path d="M5.3346 12.3223H1.94895C1.701 12.3223 1.5 12.5233 1.5 12.7712V12.8642C1.5 13.1122 1.701 13.3132 1.94895 13.3132H5.3346C5.58255 13.3132 5.78355 13.1122 5.78355 12.8642V12.7712C5.78355 12.5233 5.58255 12.3223 5.3346 12.3223Z" fill="white"/>
<path d="M1.94883 12.0223H5.33448C5.35548 12.0223 5.37633 12.0235 5.39703 12.0251C5.40709 11.989 5.41214 11.9517 5.41203 11.9141V11.7397C5.41203 11.6314 5.36903 11.5276 5.29249 11.4511C5.21595 11.3745 5.11213 11.3315 5.00388 11.3315H2.27988C2.17162 11.3315 2.06779 11.3745 1.99122 11.4511C1.91466 11.5276 1.87162 11.6314 1.87158 11.7397V11.9141C1.87148 11.9517 1.87653 11.989 1.88658 12.0251C1.90698 12.0235 1.92768 12.0223 1.94883 12.0223Z" fill="white"/>
<path d="M5.87735 5.33548C5.70478 5.16291 5.42498 5.16291 5.25241 5.33548C5.07984 5.50805 5.07984 5.78785 5.25241 5.96042L6.80819 7.5162C6.98076 7.68877 7.26056 7.68877 7.43313 7.5162C7.6057 7.34362 7.6057 7.06383 7.43313 6.89126L5.87735 5.33548Z" fill="white"/>
<path d="M3.00089 8.21097C2.82832 8.03839 2.54852 8.03839 2.37595 8.21097C2.20337 8.38354 2.20337 8.66334 2.37595 8.83591L3.93172 10.3917C4.1043 10.5643 4.38409 10.5643 4.55666 10.3917C4.72924 10.2191 4.72924 9.93932 4.55666 9.76674L3.00089 8.21097Z" fill="white"/>
<path d="M5.11201 6.24247C4.35751 6.68623 3.72872 7.31517 3.28516 8.06977L4.69951 9.48412C5.45454 9.04132 6.08402 8.41308 6.52831 7.65892L5.11201 6.24247ZM12.6752 1.68652H7.98946C7.77065 1.68652 7.56081 1.77344 7.40609 1.92816C7.25138 2.08288 7.16446 2.29272 7.16446 2.51152V6.19717L7.64626 6.67897C7.74745 6.78014 7.81722 6.9084 7.84717 7.04832C7.87711 7.18824 7.86595 7.33383 7.81502 7.46754C7.7641 7.60126 7.67559 7.71739 7.56016 7.80194C7.44473 7.88649 7.3073 7.93585 7.16446 7.94407V9.00247L8.44276 10.2808H12.5738C12.6135 10.2808 12.6517 10.2966 12.6798 10.3247C12.708 10.3528 12.7238 10.391 12.7238 10.4308C12.7238 10.4706 12.708 10.5087 12.6798 10.5368C12.6517 10.565 12.6135 10.5808 12.5738 10.5808H8.66836C8.73163 10.7246 8.75002 10.8841 8.72111 11.0385C8.69221 11.1929 8.61736 11.335 8.50636 11.4461L8.48836 11.464C8.34212 11.61 8.14391 11.692 7.93726 11.692C7.73061 11.692 7.5324 11.61 7.38616 11.464L7.16506 11.2429V11.3548C7.16506 11.5736 7.25198 11.7834 7.40669 11.9381C7.56141 12.0929 7.77125 12.1798 7.99006 12.1798H12.6752C12.894 12.1798 13.1038 12.0929 13.2585 11.9381C13.4132 11.7834 13.5002 11.5736 13.5002 11.3548V2.51092C13.5 2.29222 13.413 2.08254 13.2583 1.92795C13.1036 1.77336 12.8939 1.68652 12.6752 1.68652ZM12.5732 8.83192H8.09146C8.05167 8.83192 8.01352 8.81612 7.98539 8.78799C7.95726 8.75986 7.94146 8.72171 7.94146 8.68192C7.94146 8.64214 7.95726 8.60399 7.98539 8.57586C8.01352 8.54773 8.05167 8.53192 8.09146 8.53192H12.5738C12.6135 8.53192 12.6517 8.54773 12.6798 8.57586C12.708 8.60399 12.7238 8.64214 12.7238 8.68192C12.7238 8.72171 12.708 8.75986 12.6798 8.78799C12.6517 8.81612 12.6135 8.83192 12.5738 8.83192H12.5732ZM12.5732 7.08307H8.09146C8.05167 7.08307 8.01352 7.06727 7.98539 7.03914C7.95726 7.01101 7.94146 6.97286 7.94146 6.93307C7.94146 6.89329 7.95726 6.85514 7.98539 6.82701C8.01352 6.79888 8.05167 6.78307 8.09146 6.78307H12.5738C12.6135 6.78307 12.6517 6.79888 12.6798 6.82701C12.708 6.85514 12.7238 6.89329 12.7238 6.93307C12.7238 6.97286 12.708 7.01101 12.6798 7.03914C12.6517 7.06727 12.6135 7.08307 12.5738 7.08307H12.5732ZM12.5732 5.33422H8.09146C8.05167 5.33422 8.01352 5.31842 7.98539 5.29029C7.95726 5.26216 7.94146 5.22401 7.94146 5.18422C7.94146 5.14444 7.95726 5.10629 7.98539 5.07816C8.01352 5.05003 8.05167 5.03422 8.09146 5.03422H12.5738C12.6135 5.03422 12.6517 5.05003 12.6798 5.07816C12.708 5.10629 12.7238 5.14444 12.7238 5.18422C12.7238 5.22401 12.708 5.26216 12.6798 5.29029C12.6517 5.31842 12.6135 5.33422 12.5738 5.33422H12.5732ZM12.5732 3.58537H8.09146C8.05167 3.58537 8.01352 3.56957 7.98539 3.54144C7.95726 3.51331 7.94146 3.47516 7.94146 3.43537C7.94146 3.39559 7.95726 3.35744 7.98539 3.32931C8.01352 3.30118 8.05167 3.28537 8.09146 3.28537H12.5738C12.6135 3.28537 12.6517 3.30118 12.6798 3.32931C12.708 3.35744 12.7238 3.39559 12.7238 3.43537C12.7238 3.47516 12.708 3.51331 12.6798 3.54144C12.6517 3.56957 12.6135 3.58537 12.5738 3.58537H12.5732Z" fill="white"/>
<path d="M8.29399 10.556L6.27424 8.53613C6.06361 8.78858 5.83045 9.02134 5.57764 9.23153L7.59814 11.2519C7.68812 11.3416 7.81003 11.3921 7.93714 11.3921C8.06424 11.3921 8.18615 11.3416 8.27614 11.2519L8.29399 11.234C8.38375 11.144 8.43417 11.0221 8.43417 10.895C8.43417 10.7679 8.38375 10.646 8.29399 10.556Z" fill="white"/>
</svg>
