<svg width="18" height="18" viewBox="0 0 18 18" fill="none" xmlns="http://www.w3.org/2000/svg">
<path d="M6.11111 13.3201C6.31574 13.3201 6.48739 13.2508 6.62606 13.1121C6.76472 12.9734 6.83382 12.802 6.83333 12.5979C6.83333 12.3932 6.764 12.2216 6.62533 12.0829C6.48667 11.9443 6.31526 11.8752 6.11111 11.8757C5.90648 11.8757 5.73483 11.945 5.59617 12.0837C5.4575 12.2223 5.38841 12.3937 5.38889 12.5979C5.38889 12.8025 5.45822 12.9741 5.59689 13.1128C5.73556 13.2515 5.90696 13.3206 6.11111 13.3201ZM6.11111 10.4312C6.31574 10.4312 6.48739 10.3619 6.62606 10.2232C6.76472 10.0845 6.83382 9.91313 6.83333 9.70898C6.83333 9.50435 6.764 9.33271 6.62533 9.19404C6.48667 9.05537 6.31526 8.98628 6.11111 8.98676C5.90648 8.98676 5.73483 9.0561 5.59617 9.19476C5.4575 9.33343 5.38841 9.50484 5.38889 9.70898C5.38889 9.91361 5.45822 10.0853 5.59689 10.2239C5.73556 10.3626 5.90696 10.4317 6.11111 10.4312ZM6.11111 7.54232C6.31574 7.54232 6.48739 7.47298 6.62606 7.33432C6.76472 7.19565 6.83382 7.02424 6.83333 6.8201C6.83333 6.61547 6.764 6.44382 6.62533 6.30515C6.48667 6.16649 6.31526 6.09739 6.11111 6.09787C5.90648 6.09787 5.73483 6.16721 5.59617 6.30587C5.4575 6.44454 5.38841 6.61595 5.38889 6.8201C5.38889 7.02473 5.45822 7.19637 5.59689 7.33504C5.73556 7.47371 5.90696 7.5428 6.11111 7.54232ZM8.27778 13.3201H12.6111V11.8757H8.27778V13.3201ZM8.27778 10.4312H12.6111V8.98676H8.27778V10.4312ZM8.27778 7.54232H12.6111V6.09787H8.27778V7.54232ZM3.94445 16.209C3.54722 16.209 3.20706 16.0674 2.92395 15.7843C2.64083 15.5012 2.49952 15.1613 2.5 14.7645V4.65343C2.5 4.25621 2.64156 3.91604 2.92467 3.63293C3.20778 3.34982 3.5477 3.2085 3.94445 3.20899H14.0556C14.4528 3.20899 14.7929 3.35054 15.0761 3.63365C15.3592 3.91676 15.5005 4.25669 15.5 4.65343V14.7645C15.5 15.1618 15.3584 15.5019 15.0753 15.785C14.7922 16.0682 14.4523 16.2095 14.0556 16.209H3.94445Z" fill="white"/>
</svg>
