<svg width="24" height="24" viewBox="0 0 24 24" fill="none" xmlns="http://www.w3.org/2000/svg">
<path d="M11.9986 21.4029C12.4214 21.394 12.8271 21.2482 13.144 20.9915C13.4609 20.7348 13.6685 20.3836 13.7302 20H10.2C10.2634 20.394 10.4807 20.7534 10.8116 21.0115C11.1424 21.2696 11.5643 21.4086 11.9986 21.4029Z" fill="#2C3A93"/>
<path fill-rule="evenodd" clip-rule="evenodd" d="M11.9999 2.5C12.5522 2.5 12.9999 2.94772 12.9999 3.5V4.00451C14.2009 4.23966 15.7454 4.90564 16.9782 6.33931C17.76 7.24844 18.0907 8.33667 18.2588 9.41373C18.3623 10.0773 18.4099 10.8021 18.455 11.489L18.455 11.489C18.4804 11.8753 18.505 12.2497 18.5383 12.5944C18.7217 14.4921 19.3325 16.5691 20.7457 17.9861C21.0403 18.2815 21.0685 18.6865 20.9583 18.9876C20.8466 19.2929 20.5483 19.6 20.0999 19.6H11.9999H3.89993C3.45156 19.6 3.15322 19.2929 3.04152 18.9876C2.9314 18.6865 2.95953 18.2815 3.25416 17.9861C4.66733 16.5691 5.27816 14.4921 5.46155 12.5944C5.49486 12.2497 5.51945 11.8753 5.54483 11.489L5.54483 11.489C5.58994 10.8021 5.63755 10.0773 5.7411 9.41373C5.90917 8.33667 6.23989 7.24844 7.02165 6.33931C8.25447 4.90564 9.799 4.23966 10.9999 4.00451V3.5C10.9999 2.94772 11.4476 2.5 11.9999 2.5ZM11.9999 18.4H19.4981C18.096 16.742 17.5234 14.568 17.3439 12.7098C17.3025 12.282 17.2763 11.8731 17.2507 11.4744L17.2507 11.4742C17.2097 10.8349 17.1703 10.2217 17.0731 9.59875C16.9215 8.62734 16.6434 7.79048 16.0683 7.12171C14.7158 5.54883 12.9196 5.1 11.9999 5.1C11.0803 5.1 9.28404 5.54883 7.93152 7.12171C7.35644 7.79048 7.07834 8.62734 6.92675 9.59875C6.82954 10.2217 6.79019 10.8349 6.74917 11.4742L6.74917 11.4742C6.72358 11.873 6.69733 12.2819 6.65599 12.7098C6.47642 14.568 5.90386 16.742 4.5018 18.4H11.9999Z" fill="#2C3A93"/>
</svg>
