<svg width="16" height="17" viewBox="0 0 16 17" fill="none" xmlns="http://www.w3.org/2000/svg">
<path fill-rule="evenodd" clip-rule="evenodd" d="M15.9232 7.23C16.1368 9.34099 15.5031 11.4504 14.1615 13.0941C12.8198 14.7379 10.8802 15.7814 8.76917 15.995C6.65818 16.2086 4.54879 15.5749 2.90503 14.2333C1.26128 12.8917 0.217806 10.952 0.00417378 8.841C-0.0167783 8.64315 0.0417239 8.44508 0.166811 8.29036C0.291897 8.13564 0.473322 8.03695 0.671174 8.016C0.869025 7.99505 1.0671 8.05355 1.22181 8.17864C1.37653 8.30372 1.47522 8.48515 1.49617 8.683C1.61168 9.77654 2.00271 10.8229 2.6327 11.7242C3.26268 12.6254 4.11101 13.3521 5.09831 13.8363C6.08561 14.3205 7.17959 14.5462 8.2779 14.4925C9.37621 14.4387 10.4429 14.1072 11.3782 13.529C12.3135 12.9508 13.0869 12.1447 13.6259 11.1862C14.1648 10.2278 14.4519 9.14823 14.46 8.04864C14.4682 6.94905 14.1973 5.86536 13.6727 4.89897C13.148 3.93259 12.3868 3.1151 11.4602 2.523V4.25C11.4602 4.44891 11.3812 4.63968 11.2405 4.78033C11.0999 4.92098 10.9091 5 10.7102 5C10.5113 5 10.3205 4.92098 10.1798 4.78033C10.0392 4.63968 9.96017 4.44891 9.96017 4.25V0H14.2102C14.4091 0 14.5999 0.0790176 14.7405 0.21967C14.8812 0.360322 14.9602 0.551088 14.9602 0.75C14.9602 0.948912 14.8812 1.13968 14.7405 1.28033C14.5999 1.42098 14.4091 1.5 14.2102 1.5H12.6242C13.5506 2.16484 14.3243 3.02005 14.8932 4.00829C15.4622 4.99653 15.8134 6.09497 15.9232 7.23ZM6.96017 2C7.22539 2 7.47974 1.89464 7.66728 1.70711C7.85482 1.51957 7.96017 1.26522 7.96017 1C7.96017 0.734784 7.85482 0.48043 7.66728 0.292893C7.47974 0.105357 7.22539 0 6.96017 0C6.69496 0 6.4406 0.105357 6.25307 0.292893C6.06553 0.48043 5.96017 0.734784 5.96017 1C5.96017 1.26522 6.06553 1.51957 6.25307 1.70711C6.4406 1.89464 6.69496 2 6.96017 2ZM4.71017 2.25C4.71017 2.51522 4.60482 2.76957 4.41728 2.95711C4.22974 3.14464 3.97539 3.25 3.71017 3.25C3.44496 3.25 3.1906 3.14464 3.00307 2.95711C2.81553 2.76957 2.71017 2.51522 2.71017 2.25C2.71017 1.98478 2.81553 1.73043 3.00307 1.54289C3.1906 1.35536 3.44496 1.25 3.71017 1.25C3.97539 1.25 4.22974 1.35536 4.41728 1.54289C4.60482 1.73043 4.71017 1.98478 4.71017 2.25ZM1.46017 6C1.72539 6 1.97974 5.89464 2.16728 5.70711C2.35482 5.51957 2.46017 5.26522 2.46017 5C2.46017 4.73478 2.35482 4.48043 2.16728 4.29289C1.97974 4.10536 1.72539 4 1.46017 4C1.19496 4 0.940603 4.10536 0.753067 4.29289C0.565531 4.48043 0.460174 4.73478 0.460174 5C0.460174 5.26522 0.565531 5.51957 0.753067 5.70711C0.940603 5.89464 1.19496 6 1.46017 6Z" fill="#15245E"/>
</svg>
