<svg width="24" height="24" viewBox="0 0 24 24" fill="none" xmlns="http://www.w3.org/2000/svg">
<path d="M18.2223 6.66667V5.77778C18.2223 5.30628 18.035 4.8541 17.7016 4.5207C17.3682 4.1873 16.916 4 16.4445 4H7.55561C7.08411 4 6.63193 4.1873 6.29853 4.5207C5.96513 4.8541 5.77783 5.30628 5.77783 5.77778V18.2222C5.77783 18.6937 5.96513 19.1459 6.29853 19.4793C6.63193 19.8127 7.08411 20 7.55561 20H16.4445C16.916 20 17.3682 19.8127 17.7016 19.4793C18.035 19.1459 18.2223 18.6937 18.2223 18.2222V17.3333M12.0001 12H18.2223H12.0001ZM18.2223 12L15.5556 14.6667L18.2223 12ZM18.2223 12L15.5556 9.33333L18.2223 12Z" stroke="#15245E" stroke-width="1.28" stroke-linecap="round" stroke-linejoin="round"/>
</svg>
