<svg width="250" height="639" viewBox="0 0 250 639" fill="none" xmlns="http://www.w3.org/2000/svg">
<g clip-path="url(#clip0_234_7275)">
<rect width="250" height="639" fill="white"/>
<path d="M432.5 -9H-77V956H432.5V-9Z" fill="url(#paint0_radial_234_7275)"/>
<g opacity="0.4">
<path d="M-28.2926 740.688C36.7781 770.764 108.625 765.557 147.493 733.155C185.991 700.963 192.355 642.413 160.157 589.51C144.412 563.686 119.585 539.276 90.8138 521.761C61.6945 504.051 28.1667 493.068 -2.70131 490.798C-65.7129 486.213 -114.519 518.609 -120.471 565.99C-135.717 566.823 -147.698 571.903 -151.62 581.109C-145.853 512.397 -78.1996 464.513 9.67963 469.173C52.14 471.459 98.1407 485.814 137.864 509.358C176.695 532.396 210.034 564.657 231.168 598.616C273.953 667.488 266.715 743.126 219.501 785.96C172.207 828.739 84.5888 839.006 2.89985 805.026C-11.7005 785.133 -22.1714 763.016 -28.2926 740.688Z" fill="url(#paint1_linear_234_7275)"/>
<path d="M34.8806 689.699C77.404 694.071 114.283 674.878 124.229 641.49C129.208 624.702 127.435 604.562 118.235 584.524C109.049 564.547 92.0198 544.37 70.3829 528.953C48.0382 513.048 20.3337 501.894 -6.45825 498.262C-34.7104 494.448 -62.0763 498.723 -83.3266 510.387C-127.216 534.545 -140.572 591.036 -111.547 645.202C-117.813 649.075 -123.254 652.975 -127.522 657.081C-131.358 660.775 -134.196 664.586 -135.347 668.648C-153.311 631.504 -157.728 592.903 -148.279 560.331C-138.663 527.291 -115.178 500.802 -82.3494 485.365C-50.3921 470.367 -9.99953 466.207 30.9437 473.75C69.835 480.935 109.428 499.099 140.448 523.621C170.75 547.598 193.594 578.113 204.957 607.859C216.44 637.978 216.861 667.807 207.512 692.634C188.623 742.615 129.654 771.279 60.8332 763.561C52.4419 739.73 43.9845 715.005 34.8806 689.699Z" fill="url(#paint2_linear_234_7275)"/>
<path d="M-28.8909 706.078C22.6881 725.523 74.215 715.81 97.6444 687.929C108.99 674.394 114.147 657.018 112.423 638.618C110.765 621.052 102.675 602.517 89.7609 586.611C77.377 571.373 60.3578 558.432 42.7791 550.415C25.6043 542.591 7.83533 539.309 -6.93641 540.524C-21.1965 541.707 -32.5577 546.962 -39.3408 554.713C-45.6141 561.894 -47.8225 571.112 -45.9095 580.149C-70.4609 573.546 -93.7045 571.641 -112.031 575.621C-113.446 553.862 -105.598 533.339 -89.5523 518.13C-72.8617 502.335 -47.6233 492.513 -17.792 491.054C12.1035 489.609 46.4168 496.776 78.4368 511.826C110.283 526.812 140.055 549.875 161.384 576.133C183.083 602.871 196.52 633.216 199.857 661.609C203.264 690.763 196.323 718.035 180.438 739.601C148.308 783.112 77.6377 801.616 4.31576 779.573C-12.0008 755.856 -23.4539 730.567 -28.8909 706.078Z" fill="url(#paint3_linear_234_7275)"/>
<path d="M-33.1868 499.925C3.2321 498.523 39.3726 509.434 69.4822 530.371C97.8965 550.154 120.603 578.937 133.422 610.888C145.47 640.968 148.698 674.363 143.197 703.349C137.796 731.711 124.155 756.572 106.132 773.794C70.2403 808.022 17.957 812.082 -22.9063 789.432C-42.3374 778.64 -59.0717 762.166 -70.6422 742.607C-81.5925 724.074 -87.8188 702.664 -88.3532 682.477C-113.539 690.033 -137.964 695.759 -160.888 700.597C-159.5 735.468 -149.01 771.187 -131.476 801.766C-113.408 833.239 -87.9505 859.584 -58.8276 877.514C0.801567 914.162 75.3937 914.151 129.639 873.153C156.29 852.969 177.764 822.785 188.812 787C199.858 751.145 200.272 708.583 188.89 669.149C176.923 627.779 152.019 588.966 119.202 560.778C84.5025 531.011 41.4028 512.888 -2.98669 509.513C-13.6535 498.397 -25.9674 494.223 -33.1868 499.925Z" fill="url(#paint4_linear_234_7275)"/>
<path d="M-152.502 626.336C-145.632 595.375 -129.581 567.085 -107.489 547.082C-84.5073 526.3 -55.1348 514.208 -24.3185 512.705C38.2201 509.721 103.942 553.066 134.007 619.068C148.49 650.931 154.665 687.595 151.379 721.69C148.083 755.699 135.424 787.787 116.385 812.429C77.3198 862.9 11.7189 882 -47.9066 862.955C-51.3693 894.727 -53.5758 925.316 -54.4925 954.148C21.2593 976.455 104.171 951.974 154.138 887.673C178.583 856.157 194.993 814.978 199.229 771.077C203.472 726.837 195.249 678.924 175.897 637.215C155.844 594.056 124.021 557.036 86.3578 532.497C47.8684 507.453 3.85454 495.508 -38.5821 498.382C-80.3207 501.238 -119.862 518.513 -150.348 547.475C-179.559 575.264 -200.228 614.158 -208.238 656.13C-193.405 641.088 -173.924 631.233 -152.502 626.336Z" fill="url(#paint5_linear_234_7275)"/>
<path d="M-54.1588 579.096C-43.1595 565.901 -27.0998 556.83 -8.82573 554.098C10.7783 551.182 32.6362 555.502 53.1137 567.181C74.2646 579.26 93.6088 599.117 107.316 624.194C121.156 649.544 129.078 680.328 129.013 710.95C128.932 742.155 120.555 773.514 105.41 799.426C89.743 826.196 66.9029 847.484 40.4014 860.459C-14.4595 887.256 -84.3923 877.356 -136.451 831.885C-141.628 864.701 -141.763 898.371 -137.216 930.143C-70.0351 976.412 15.5797 980.099 82.0973 940.039C114.764 920.328 142.643 890.215 161.139 853.192C179.317 816.757 188.358 773.07 186.131 729.669C183.878 686.171 170.288 642.458 148.176 606.369C125.828 569.936 95.0348 541.175 61.2973 524.034C28.0467 507.165 -7.52234 501.725 -39.7499 507.866C-70.3417 513.717 -97.5167 530.097 -116.491 553.66C-94.8309 553.669 -72.7582 562.909 -54.1588 579.096Z" fill="url(#paint6_linear_234_7275)"/>
<path d="M-85.8006 813.973C-131.782 799.186 -165.245 756.513 -168.379 712.263C-169.913 690.319 -164.576 668.422 -153.3 649.998C-142.441 632.277 -126.008 617.901 -107.009 609.508C-71.1831 593.72 -31.6494 614.563 -5.03644 639C21.9998 663.883 37.9049 690.053 26.6864 722.215C58.6939 729.745 90.5125 737.577 121.829 745.345C141.356 687.549 125.787 619.954 79.8831 575.557C57.2877 553.74 27.3763 537.662 -5.03645 531.159C-37.5414 524.659 -73.2803 527.908 -104.63 540.808C-137.135 554.206 -165.48 577.972 -184.333 607.567C-203.884 638.301 -213.339 675.017 -211.162 711.749C-208.948 748.714 -194.976 785.143 -171.123 815.007C-147.812 844.156 -114.971 866.752 -78.5048 878.337C-84.4281 859.491 -86.3117 837.611 -85.8006 813.973Z" fill="url(#paint7_linear_234_7275)"/>
</g>
<path d="M4.34847 -4.55187L-183.05 -31.6933L-82.3721 80.7187L4.34847 -4.55187Z" fill="url(#paint8_linear_234_7275)"/>
<path d="M4.86348 106.594L-82.375 80.717L-3.07137 174.541L4.86348 106.594Z" fill="url(#paint9_linear_234_7275)"/>
<path d="M261.208 34.6086L192.941 -40.2782L271.555 -62.4056L261.208 34.6086Z" fill="url(#paint10_linear_234_7275)"/>
</g>
<defs>
<radialGradient id="paint0_radial_234_7275" cx="0" cy="0" r="1" gradientUnits="userSpaceOnUse" gradientTransform="translate(128.074 216.166) scale(367.926 464.595)">
<stop offset="0.1802" stop-color="white"/>
<stop offset="0.9969" stop-color="#DCEDF7"/>
</radialGradient>
<linearGradient id="paint1_linear_234_7275" x1="243.001" y1="757.089" x2="-151.966" y2="565.051" gradientUnits="userSpaceOnUse">
<stop stop-color="white"/>
<stop offset="0.1712" stop-color="#FCFEFF"/>
<stop offset="0.3219" stop-color="#F1FAFF"/>
<stop offset="0.4648" stop-color="#DFF5FF"/>
<stop offset="0.6031" stop-color="#C5EDFF"/>
<stop offset="0.738" stop-color="#A5E2FF"/>
<stop offset="0.869" stop-color="#7DD5FF"/>
<stop offset="0.9971" stop-color="#4EC6FF"/>
<stop offset="1" stop-color="#4DC6FF"/>
</linearGradient>
<linearGradient id="paint2_linear_234_7275" x1="180.855" y1="732.08" x2="-95.6061" y2="484.512" gradientUnits="userSpaceOnUse">
<stop stop-color="white"/>
<stop offset="0.1712" stop-color="#FCFEFF"/>
<stop offset="0.3219" stop-color="#F1FAFF"/>
<stop offset="0.4648" stop-color="#DFF5FF"/>
<stop offset="0.6031" stop-color="#C5EDFF"/>
<stop offset="0.738" stop-color="#A5E2FF"/>
<stop offset="0.869" stop-color="#7DD5FF"/>
<stop offset="0.9971" stop-color="#4EC6FF"/>
<stop offset="1" stop-color="#4DC6FF"/>
</linearGradient>
<linearGradient id="paint3_linear_234_7275" x1="192.274" y1="720.094" x2="-130.584" y2="616.336" gradientUnits="userSpaceOnUse">
<stop stop-color="white"/>
<stop offset="0.1712" stop-color="#FCFEFF"/>
<stop offset="0.3219" stop-color="#F1FAFF"/>
<stop offset="0.4648" stop-color="#DFF5FF"/>
<stop offset="0.6031" stop-color="#C5EDFF"/>
<stop offset="0.738" stop-color="#A5E2FF"/>
<stop offset="0.869" stop-color="#7DD5FF"/>
<stop offset="0.9971" stop-color="#4EC6FF"/>
<stop offset="1" stop-color="#4DC6FF"/>
</linearGradient>
<linearGradient id="paint4_linear_234_7275" x1="7.4332" y1="902.283" x2="70.3636" y2="512.634" gradientUnits="userSpaceOnUse">
<stop stop-color="white"/>
<stop offset="0.1712" stop-color="#FCFEFF"/>
<stop offset="0.3219" stop-color="#F1FAFF"/>
<stop offset="0.4648" stop-color="#DFF5FF"/>
<stop offset="0.6031" stop-color="#C5EDFF"/>
<stop offset="0.738" stop-color="#A5E2FF"/>
<stop offset="0.869" stop-color="#7DD5FF"/>
<stop offset="0.9971" stop-color="#4EC6FF"/>
<stop offset="1" stop-color="#4DC6FF"/>
</linearGradient>
<linearGradient id="paint5_linear_234_7275" x1="37.06" y1="958.959" x2="-42.851" y2="498.144" gradientUnits="userSpaceOnUse">
<stop stop-color="white"/>
<stop offset="0.1712" stop-color="#FCFEFF"/>
<stop offset="0.3219" stop-color="#F1FAFF"/>
<stop offset="0.4648" stop-color="#DFF5FF"/>
<stop offset="0.6031" stop-color="#C5EDFF"/>
<stop offset="0.738" stop-color="#A5E2FF"/>
<stop offset="0.869" stop-color="#7DD5FF"/>
<stop offset="0.9971" stop-color="#4EC6FF"/>
<stop offset="1" stop-color="#4DC6FF"/>
</linearGradient>
<linearGradient id="paint6_linear_234_7275" x1="65.8861" y1="948.928" x2="-111.9" y2="535.522" gradientUnits="userSpaceOnUse">
<stop stop-color="white"/>
<stop offset="0.1712" stop-color="#FCFEFF"/>
<stop offset="0.3219" stop-color="#F1FAFF"/>
<stop offset="0.4648" stop-color="#DFF5FF"/>
<stop offset="0.6031" stop-color="#C5EDFF"/>
<stop offset="0.738" stop-color="#A5E2FF"/>
<stop offset="0.869" stop-color="#7DD5FF"/>
<stop offset="0.9971" stop-color="#4EC6FF"/>
<stop offset="1" stop-color="#4DC6FF"/>
</linearGradient>
<linearGradient id="paint7_linear_234_7275" x1="297.555" y1="280.868" x2="-39.3787" y2="343.94" gradientUnits="userSpaceOnUse">
<stop stop-color="white"/>
<stop offset="0.1712" stop-color="#FCFEFF"/>
<stop offset="0.3219" stop-color="#F1FAFF"/>
<stop offset="0.4648" stop-color="#DFF5FF"/>
<stop offset="0.6031" stop-color="#C5EDFF"/>
<stop offset="0.738" stop-color="#A5E2FF"/>
<stop offset="0.869" stop-color="#7DD5FF"/>
<stop offset="0.9971" stop-color="#4EC6FF"/>
<stop offset="1" stop-color="#4DC6FF"/>
</linearGradient>
<linearGradient id="paint8_linear_234_7275" x1="58.0585" y1="52.6883" x2="-18.5266" y2="-103.896" gradientUnits="userSpaceOnUse">
<stop stop-color="#DDF3FC" stop-opacity="0"/>
<stop offset="1" stop-color="#E2F4FD"/>
</linearGradient>
<linearGradient id="paint9_linear_234_7275" x1="30.4828" y1="154.166" x2="-50.5222" y2="60.2265" gradientUnits="userSpaceOnUse">
<stop stop-color="#DDF3FC" stop-opacity="0"/>
<stop offset="1" stop-color="#E2F4FD"/>
</linearGradient>
<linearGradient id="paint10_linear_234_7275" x1="296.295" y1="14.1807" x2="214.375" y2="-73.2977" gradientUnits="userSpaceOnUse">
<stop stop-color="#DDF3FC" stop-opacity="0"/>
<stop offset="1" stop-color="#E2F4FD"/>
</linearGradient>
<clipPath id="clip0_234_7275">
<rect width="250" height="639" fill="white"/>
</clipPath>
</defs>
</svg>
